<svg width="813" height="544" viewBox="0 0 813 544" fill="none" xmlns="http://www.w3.org/2000/svg">
<path d="M302.567 434.878L257.142 461.021C254.244 462.483 251.044 463.244 247.799 463.244C244.554 463.244 241.354 462.483 238.456 461.021L203.201 440.6L93.9091 503.708C91.0429 505.266 87.8137 506.033 84.5529 505.931C81.293 506.024 78.0661 505.257 75.1966 503.708L38.4768 482.5C32.4291 479.056 28.9849 475.313 28.0629 471.3L0.943344 336.027C0.848575 335.208 0.830406 334.382 0.889093 333.56C0.889093 336.272 0.889093 369.927 0.889093 371.527C0.901023 372.228 0.973618 372.927 1.10605 373.615L28.2256 508.86C29.1477 512.901 32.5918 516.616 38.6395 520.088L75.3594 541.295C78.2288 542.845 81.4557 543.612 84.7156 543.519C87.9764 543.621 91.2056 542.853 94.0718 541.295L203.255 478.242L238.51 498.663C241.408 500.125 244.608 500.886 247.853 500.886C251.098 500.886 254.298 500.125 257.196 498.663L302.621 472.466C303.693 471.998 304.617 471.244 305.291 470.288C305.965 469.332 306.364 468.209 306.445 467.042V429.346C306.376 430.537 305.976 431.686 305.291 432.663C304.606 433.64 303.663 434.407 302.567 434.878V434.878Z" fill="#DC303C"/>
<path d="M300.83 418.716V381.047C300.749 382.215 300.35 383.337 299.676 384.294C299.002 385.25 298.079 386.003 297.006 386.471L267.175 403.665L299.366 422.215C300.281 421.277 300.805 420.026 300.83 418.716V418.716Z" fill="#DC303C"/>
<path d="M94.1259 413.424L116.716 426.523L149.368 407.675L85.6104 370.819L94.0716 413.424H94.1259Z" fill="#DC303C"/>
<path opacity="0.35" d="M94.1259 413.424L116.716 426.523L149.368 407.675L85.6104 370.819L94.0716 413.424H94.1259Z" fill="black"/>
<path opacity="0.2" d="M300.83 418.716V381.047C300.749 382.215 300.35 383.337 299.676 384.294C299.002 385.25 298.079 386.003 297.006 386.471L267.175 403.665L299.366 422.215C300.281 421.277 300.805 420.026 300.83 418.716V418.716Z" fill="black"/>
<path opacity="0.2" d="M302.566 434.88L257.141 461.024C254.279 462.592 251.047 463.36 247.785 463.248V500.944C251.047 501.056 254.279 500.288 257.141 498.72L302.566 472.522C303.638 472.054 304.562 471.301 305.236 470.345C305.91 469.388 306.309 468.266 306.39 467.098V429.402C306.316 430.578 305.92 431.711 305.246 432.677C304.571 433.643 303.644 434.406 302.566 434.88V434.88Z" fill="black"/>
<path opacity="0.25" d="M28.0086 471.3L0.889075 336.027C0.812366 335.207 0.812366 334.38 0.889075 333.56C0.889075 336.272 0.889075 369.927 0.889075 371.527C0.901005 372.228 0.9736 372.927 1.10604 373.615L28.2256 508.86C28.3923 509.665 28.6755 510.442 29.0663 511.165V473.469C28.6138 472.799 28.2577 472.069 28.0086 471.3V471.3Z" fill="black"/>
<path opacity="0.35" d="M84.5516 505.933C81.2918 506.026 78.0649 505.259 75.1954 503.709L38.4755 482.502C34.455 480.565 31.1169 477.454 28.9023 473.58V511.276C31.1169 515.15 34.455 518.261 38.4755 520.198L75.1954 541.406C78.0649 542.955 81.2918 543.722 84.5516 543.629C84.903 543.67 85.2579 543.67 85.6093 543.629V505.933C85.2579 505.974 84.903 505.974 84.5516 505.933Z" fill="black"/>
<path opacity="0.2" d="M93.9089 503.709C91.3697 505.117 88.5136 505.854 85.6104 505.852V543.548C88.5136 543.55 91.3697 542.813 93.9089 541.405L203.092 478.352V440.656L93.9089 503.709Z" fill="black"/>
<path opacity="0.35" d="M238.454 461.023L203.198 440.602V478.298L238.454 498.719C241.308 500.284 244.53 501.052 247.783 500.943V463.247C244.53 463.356 241.308 462.588 238.454 461.023V461.023Z" fill="black"/>
<path d="M257.168 461.022C254.302 462.577 251.071 463.336 247.812 463.219C244.554 463.326 241.325 462.568 238.456 461.022L203.2 440.628L93.9084 503.708C91.0013 505.154 87.7988 505.906 84.5522 505.906C81.3056 505.906 78.1031 505.154 75.1959 503.708L38.4761 482.501C32.4555 479.03 28.9843 475.296 28.0622 471.3L0.942645 336.028C0.406005 333.942 0.657019 331.731 1.64774 329.818C3.22242 327.795 5.23423 326.154 7.53267 325.018L59.8734 294.807C62.7757 293.345 65.9801 292.583 69.2296 292.583C72.4792 292.583 75.6836 293.345 78.5859 294.807L211.77 371.528L241.601 354.307C244.471 352.76 247.7 352.002 250.958 352.11C254.219 352.002 257.45 352.77 260.314 354.334L297.061 375.541C298.197 375.923 299.184 376.652 299.884 377.625C300.583 378.599 300.96 379.767 300.96 380.965C300.96 382.164 300.583 383.332 299.884 384.305C299.184 385.278 298.197 386.007 297.061 386.389L267.229 403.61L302.485 424.004C303.608 424.399 304.581 425.133 305.269 426.104C305.958 427.076 306.327 428.237 306.327 429.428C306.327 430.619 305.958 431.78 305.269 432.751C304.581 433.723 303.608 434.457 302.485 434.852L257.168 461.022ZM149.368 407.597L85.6099 370.795L98.7628 436.831L149.368 407.597Z" fill="#DC303C"/>
<path d="M546.559 267.526C546.396 276.583 542.817 285.885 535.955 295.323C528.543 305.43 516.176 315.5 498.856 325.534C482.526 335.127 464.91 342.341 446.542 346.959C429.691 351.149 412.379 353.199 395.015 353.061C378.676 352.918 362.424 350.667 346.661 346.362C331.79 342.331 317.382 336.75 303.677 329.711C293.751 324.522 283.355 318.791 272.489 312.517C261.641 306.252 251.471 300.15 241.98 294.103C231.188 287.367 221.501 279.006 213.26 269.315C206.325 261.597 202.23 251.743 201.653 241.382C201.843 247.376 201.409 272.488 201.653 279.079C202.23 289.439 206.325 299.293 213.26 307.012C221.501 316.702 231.188 325.063 241.98 331.799C251.471 337.847 261.641 343.948 272.489 350.213C283.337 356.478 293.751 362.227 303.677 367.461C317.395 374.459 331.799 380.021 346.661 384.058C362.424 388.363 378.676 390.614 395.015 390.757C412.379 390.895 429.691 388.845 446.542 384.655C464.91 380.037 482.526 372.823 498.856 363.23C516.212 353.232 528.579 343.162 535.955 333.019C543.359 322.877 546.803 312.951 546.532 303.188C546.315 297.764 546.695 276.068 546.559 267.526Z" fill="#DC303C"/>
<path opacity="0.35" d="M404.318 352.871C401.226 352.871 398.135 353.115 395.07 353.061C378.731 352.918 362.479 350.667 346.716 346.362C331.845 342.331 317.438 336.75 303.732 329.711C293.806 324.522 283.41 318.791 272.544 312.517C261.696 306.252 251.527 300.15 242.035 294.103C231.243 287.367 221.556 279.006 213.315 269.315C206.38 261.597 202.285 251.743 201.708 241.382C201.898 247.376 201.464 272.488 201.708 279.079C202.285 289.439 206.38 299.293 213.315 307.012C221.556 316.702 231.243 325.063 242.035 331.799C251.527 337.847 261.696 343.948 272.544 350.213C283.392 356.478 293.806 362.227 303.732 367.461C317.45 374.459 331.854 380.021 346.716 384.058C362.479 388.363 378.731 390.614 395.07 390.757C398.135 390.757 401.226 390.757 404.318 390.567V352.871Z" fill="black"/>
<path opacity="0.2" d="M546.562 267.522C546.4 276.58 542.82 285.882 535.958 295.32C528.546 305.427 516.179 315.497 498.859 325.531C482.529 335.124 464.913 342.338 446.545 346.956C432.704 350.334 418.558 352.315 404.32 352.868V390.51C418.558 389.957 432.704 387.976 446.545 384.598C464.913 379.98 482.529 372.766 498.859 363.173C516.215 353.175 528.582 343.105 535.958 332.962C543.362 322.819 546.806 312.893 546.535 303.13C546.318 297.761 546.698 276.065 546.562 267.522Z" fill="black"/>
<path d="M294.403 247.513C296.487 249.674 298.746 251.66 301.155 253.452C302.321 252.692 303.487 251.933 304.762 251.147C311.143 247.428 318.044 244.685 325.237 243.011C331.669 241.585 338.271 241.083 344.845 241.519C351.215 242.006 357.501 243.281 363.557 245.316C369.886 247.495 376.072 250.068 382.08 253.018C402.185 263.594 421.593 274.804 440.306 286.646C442.783 288.183 445.033 289.729 447.058 291.284C451.186 288.851 454.783 285.614 457.635 281.765C460.002 278.462 460.976 274.361 460.347 270.347C459.375 266.167 457.152 262.383 453.974 259.499C449.782 255.527 445.183 252.009 440.251 249.004C421.539 237.126 402.13 225.916 382.026 215.376C376.018 212.426 369.832 209.853 363.503 207.674C357.447 205.639 351.161 204.364 344.791 203.877C338.217 203.441 331.615 203.943 325.183 205.369C317.987 207.033 311.084 209.776 304.708 213.505C299.168 216.344 294.325 220.372 290.524 225.302C289.318 226.898 288.455 228.727 287.988 230.673C287.522 232.619 287.462 234.64 287.812 236.611C288.982 240.774 291.26 244.542 294.403 247.513V247.513Z" fill="#DC303C"/>
<path opacity="0.35" d="M294.403 247.513C296.487 249.674 298.746 251.66 301.155 253.452C302.321 252.692 303.487 251.933 304.762 251.147C311.143 247.428 318.044 244.685 325.237 243.011C331.669 241.585 338.271 241.083 344.845 241.519C351.215 242.006 357.501 243.281 363.557 245.316C369.886 247.495 376.072 250.068 382.08 253.018C402.185 263.594 421.593 274.804 440.306 286.646C442.783 288.183 445.033 289.729 447.058 291.284C451.186 288.851 454.783 285.614 457.635 281.765C460.002 278.462 460.976 274.361 460.347 270.347C459.375 266.167 457.152 262.383 453.974 259.499C449.782 255.527 445.183 252.009 440.251 249.004C421.539 237.126 402.13 225.916 382.026 215.376C376.018 212.426 369.832 209.853 363.503 207.674C357.447 205.639 351.161 204.364 344.791 203.877C338.217 203.441 331.615 203.943 325.183 205.369C317.987 207.033 311.084 209.776 304.708 213.505C299.168 216.344 294.325 220.372 290.524 225.302C289.318 226.898 288.455 228.727 287.988 230.673C287.522 232.619 287.462 234.64 287.812 236.611C288.982 240.774 291.26 244.542 294.403 247.513V247.513Z" fill="black"/>
<path d="M249.33 181.448C265.663 171.848 283.29 164.642 301.671 160.051C318.522 155.861 335.834 153.811 353.198 153.949C369.537 154.091 385.789 156.343 401.552 160.647C416.415 164.68 430.82 170.242 444.536 177.245C454.914 182.669 465.536 188.544 476.402 194.872C487.268 201.2 497.212 207.203 506.233 212.88C517.043 219.623 526.748 227.993 535.007 237.694C541.902 245.428 545.991 255.258 546.614 265.6C546.958 275.273 543.441 285.217 536.065 295.432C528.688 305.647 516.295 315.645 498.884 325.426C482.547 335.026 464.922 342.24 446.543 346.85C429.69 351.029 412.379 353.078 395.016 352.952C378.684 352.802 362.441 350.541 346.689 346.226C331.819 342.216 317.411 336.653 303.705 329.629C293.743 324.422 283.347 318.682 272.517 312.408C261.687 306.135 251.518 300.006 242.008 294.021C231.204 287.259 221.5 278.882 213.234 269.18C206.325 261.482 202.216 251.678 201.572 241.355C201.22 231.701 204.745 221.775 212.149 211.659C219.553 201.544 232.001 191.455 249.33 181.448ZM440.224 248.894C421.512 237.016 402.103 225.807 381.999 215.266C375.987 212.304 369.791 209.732 363.449 207.564C357.398 205.509 351.11 204.233 344.736 203.768C338.172 203.318 331.577 203.82 325.156 205.259C317.965 206.911 311.069 209.655 304.708 213.395C299.155 216.225 294.301 220.255 290.497 225.192C289.293 226.79 288.43 228.618 287.964 230.564C287.497 232.51 287.436 234.531 287.785 236.501C288.886 240.64 291.111 244.395 294.213 247.349C298.274 251.433 302.829 254.995 307.773 257.952C326.587 270.16 346.022 281.385 365.998 291.581C371.837 294.706 377.923 297.345 384.195 299.472C390.328 301.558 396.713 302.808 403.179 303.188C417.261 304.057 431.275 300.634 443.37 293.37C448.934 290.556 453.791 286.524 457.581 281.573C458.766 279.945 459.616 278.097 460.082 276.137C460.547 274.177 460.619 272.144 460.293 270.156C459.322 265.97 457.087 262.183 453.893 259.308C449.721 255.359 445.139 251.868 440.224 248.894V248.894Z" fill="#DC303C"/>
<path d="M808.835 142.587L763.437 168.785C760.562 170.343 757.322 171.102 754.054 170.981C750.812 171.103 747.597 170.344 744.752 168.785L709.496 148.364L600.232 211.525C597.325 212.987 594.116 213.748 590.862 213.748C587.608 213.748 584.399 212.987 581.492 211.525L544.772 190.317C538.752 186.846 535.28 183.104 534.358 179.09L507.239 43.8448C507.095 43.0483 507.022 42.2406 507.022 41.4312C507.022 44.1431 507.022 77.7985 507.022 79.3985C507.035 80.0995 507.108 80.798 507.239 81.4867L534.358 216.732C535.28 220.746 538.752 224.488 544.772 227.959L581.492 249.167C584.404 250.612 587.611 251.365 590.862 251.365C594.113 251.365 597.32 250.612 600.232 249.167L709.415 186.114L744.671 206.535C747.516 208.094 750.73 208.853 753.973 208.732C757.24 208.852 760.481 208.093 763.356 206.535L808.754 180.337C809.826 179.869 810.75 179.116 811.424 178.16C812.098 177.204 812.497 176.081 812.578 174.914V137.217C812.489 138.365 812.096 139.468 811.438 140.412C810.78 141.356 809.881 142.107 808.835 142.587V142.587Z" fill="#DC303C"/>
<path d="M807.098 126.422V88.7256C807.02 89.8937 806.622 91.0177 805.948 91.9745C805.273 92.9313 804.348 93.6838 803.274 94.1495L773.442 111.343L805.633 129.92C806.548 128.983 807.072 127.732 807.098 126.422V126.422Z" fill="#DC303C"/>
<path d="M600.392 121.106L622.983 134.232L655.662 115.384L591.876 78.5283L600.365 121.106H600.392Z" fill="#DC303C"/>
<path opacity="0.35" d="M600.392 121.106L622.983 134.232L655.662 115.384L591.876 78.5283L600.365 121.106H600.392Z" fill="black"/>
<path opacity="0.2" d="M807.098 126.422V88.7256C807.02 89.8937 806.622 91.0177 805.948 91.9745C805.273 92.9313 804.348 93.6838 803.274 94.1495L773.442 111.343L805.633 129.92C806.548 128.983 807.072 127.732 807.098 126.422V126.422Z" fill="black"/>
<path opacity="0.2" d="M808.835 142.585L763.437 168.783C760.562 170.341 757.321 171.1 754.053 170.979V208.811C757.321 208.931 760.562 208.173 763.437 206.614L808.835 180.417C809.907 179.949 810.83 179.196 811.505 178.239C812.179 177.283 812.578 176.16 812.659 174.993V137.297C812.549 138.439 812.136 139.53 811.464 140.46C810.792 141.389 809.885 142.123 808.835 142.585Z" fill="black"/>
<path opacity="0.25" d="M534.329 178.979L507.209 43.7339C507.065 42.9375 506.992 42.1297 506.992 41.3203C506.992 44.0323 506.992 77.6876 506.992 79.2877C507.005 79.9886 507.078 80.6871 507.209 81.3758L534.329 216.621C534.504 217.424 534.787 218.199 535.169 218.926V181.23C534.787 180.522 534.505 179.764 534.329 178.979V178.979Z" fill="black"/>
<path opacity="0.35" d="M590.82 213.638C587.562 213.712 584.34 212.946 581.464 211.414L544.744 190.206C540.728 188.263 537.392 185.153 535.171 181.284V218.98C537.392 222.849 540.728 225.959 544.744 227.903L581.464 249.11C584.343 250.633 587.565 251.389 590.82 251.307C591.172 251.348 591.527 251.348 591.878 251.307V213.556C591.53 213.625 591.175 213.652 590.82 213.638V213.638Z" fill="black"/>
<path opacity="0.2" d="M600.231 211.523C597.681 212.927 594.817 213.664 591.905 213.665V251.334C594.816 251.354 597.683 250.626 600.231 249.219L709.414 186.166V148.47L600.231 211.523Z" fill="black"/>
<path opacity="0.35" d="M744.75 168.784L709.495 148.363V186.059L744.75 206.48C747.595 208.039 750.81 208.798 754.052 208.677V170.98C750.81 171.102 747.595 170.343 744.75 168.784V168.784Z" fill="black"/>
<path d="M763.435 168.782C760.528 170.228 757.326 170.98 754.079 170.98C750.833 170.98 747.63 170.228 744.723 168.782L709.468 148.361L600.23 211.523C597.323 212.968 594.12 213.72 590.874 213.72C587.627 213.72 584.425 212.968 581.518 211.523L544.798 190.315C538.777 186.844 535.306 183.101 534.384 179.088L507.264 43.8156C506.745 41.737 506.995 39.5406 507.969 37.6323C509.548 35.6057 511.558 33.9566 513.854 32.805L566.195 2.59386C569.102 1.1486 572.305 0.396484 575.551 0.396484C578.798 0.396484 582 1.1486 584.908 2.59386L718.01 79.4506L747.842 62.2297C750.749 60.7845 753.951 60.0323 757.198 60.0323C760.445 60.0323 763.647 60.7845 766.554 62.2297L803.301 83.4372C804.424 83.8321 805.397 84.566 806.086 85.5376C806.774 86.5092 807.144 87.6705 807.144 88.8611C807.144 90.0518 806.774 91.2131 806.086 92.1847C805.397 93.1562 804.424 93.8901 803.301 94.285L773.47 111.479L808.725 131.9C809.861 132.282 810.848 133.011 811.548 133.984C812.248 134.957 812.624 136.125 812.624 137.324C812.624 138.522 812.248 139.69 811.548 140.664C810.848 141.637 809.861 142.366 808.725 142.748L763.435 168.782ZM655.635 115.357L591.877 78.6371L605.03 144.673L655.635 115.357Z" fill="#DC303C"/>
</svg>
