<svg width="1372" height="999" viewBox="0 0 1372 999" fill="none" xmlns="http://www.w3.org/2000/svg">
<path d="M1187.01 606.599C1173.45 606.136 1160.24 602.129 1148.7 594.978L998.788 508.372C975.606 495.009 956.747 462.367 956.747 435.61V309.816C956.732 305.606 955.611 301.474 953.497 297.833C951.382 294.193 948.348 291.172 944.698 289.074C941.049 286.975 936.912 285.873 932.702 285.877C928.492 285.88 924.357 286.99 920.711 289.095L868.069 319.485C866.697 320.203 865.1 320.363 863.612 319.932C862.124 319.5 860.861 318.51 860.085 317.169C859.31 315.828 859.083 314.239 859.452 312.735C859.82 311.23 860.756 309.926 862.063 309.095L914.705 278.705C920.176 275.546 926.382 273.881 932.699 273.877C939.016 273.873 945.224 275.529 950.699 278.681C956.174 281.832 960.725 286.367 963.895 291.832C967.064 297.296 968.742 303.498 968.759 309.816V435.61C968.759 458.162 985.245 486.661 1004.79 497.982L1154.7 584.527C1173.89 595.608 1191.7 597.56 1204.79 589.993C1217.89 582.425 1225.12 565.969 1225.12 543.897V383.298C1225.12 356.091 1242.51 324.74 1264.73 311.948L1301.31 290.927C1302.68 290.209 1304.28 290.049 1305.76 290.481C1307.25 290.912 1308.52 291.902 1309.29 293.243C1310.07 294.584 1310.29 296.173 1309.92 297.678C1309.56 299.182 1308.62 300.486 1307.31 301.317L1270.74 322.338C1252.51 332.848 1237.13 360.776 1237.13 383.298V543.897C1237.13 570.533 1227.79 590.593 1210.8 600.383C1203.56 604.528 1195.35 606.674 1187.01 606.599Z" fill="#37474F"/>
<path d="M899.21 352.579V362.399C899.21 378.135 888.189 397.234 874.586 405.101L783.776 457.593L691.165 404.201V324.141L780.923 282.67C795.187 276.094 817.8 277.115 831.403 284.983L874.586 309.907C888.189 317.775 899.21 336.874 899.21 352.579Z" fill="#3A3A3C"/>
<path d="M780.923 282.67C795.187 276.094 817.799 277.115 831.402 284.983L874.585 309.907C888.189 317.775 887.648 329.487 873.384 336.063L783.775 377.504L691.314 324.141L780.923 282.67Z" fill="#3A3A3C"/>
<path opacity="0.15" d="M792.365 358.256C795.949 360.591 798.931 363.739 801.071 367.444C803.21 371.148 804.445 375.305 804.677 379.577V445.432L783.656 457.444L691.165 404.201V324.142L714.558 313.331L792.365 358.256Z" fill="black"/>
<path d="M683.296 310.358C684.686 309.727 686.218 309.475 687.737 309.628C689.256 309.781 690.708 310.333 691.944 311.229L782.874 363.721C786.466 366.058 789.456 369.209 791.6 372.919C793.745 376.629 794.984 380.793 795.216 385.072V463.389C795.405 464.939 795.166 466.511 794.526 467.935C793.885 469.359 792.868 470.58 791.583 471.467C789.511 472.669 782.063 476.933 780.021 478.164C778.628 478.817 777.084 479.084 775.552 478.936C774.02 478.788 772.556 478.231 771.313 477.323L680.383 424.831C676.791 422.494 673.801 419.343 671.657 415.633C669.512 411.923 668.273 407.759 668.041 403.48V325.013C667.881 323.486 668.13 321.944 668.764 320.545C669.397 319.147 670.391 317.942 671.644 317.055L683.296 310.358Z" fill="#D0D0D0"/>
<path d="M771.312 370.418L680.382 317.896C673.566 313.962 668.04 317.145 668.04 325.013V403.33C668.273 407.609 669.512 411.773 671.656 415.483C673.801 419.193 676.79 422.344 680.382 424.681L771.312 477.173C778.129 481.107 783.624 477.924 783.624 470.056V391.739C783.407 387.464 782.178 383.302 780.037 379.595C777.897 375.888 774.906 372.743 771.312 370.418Z" fill="#979797"/>
<path d="M663.657 461.556V475.1C663.657 480.595 665.579 484.439 668.672 486.211L676.87 490.955C678.824 491.878 680.991 492.256 683.142 492.049C685.293 491.843 687.348 491.061 689.092 489.784L764.316 446.361V392.969L756.118 388.254L681.044 431.677C675.996 434.934 671.789 439.339 668.767 444.532C665.745 449.724 663.994 455.558 663.657 461.556ZM697.68 444.68C697.978 445.735 698.129 446.826 698.131 447.923C697.907 451.93 696.744 455.828 694.736 459.302C692.727 462.776 689.93 465.729 686.569 467.923C685.63 468.463 684.619 468.868 683.566 469.124C683.291 468.095 683.15 467.036 683.146 465.971C683.36 461.962 684.519 458.06 686.528 454.584C688.538 451.109 691.34 448.157 694.707 445.971C695.622 445.422 696.6 444.989 697.62 444.68H697.68Z" fill="#DC303C"/>
<path opacity="0.2" d="M676.359 490.626C676.522 490.756 676.693 490.876 676.87 490.986L676.57 490.806L668.672 486.212C665.519 484.47 663.657 480.656 663.657 475.131V461.557C663.854 455.539 665.602 449.674 668.732 444.53L676.9 449.245C673.8 454.4 672.064 460.26 671.855 466.272V479.815C671.593 483.303 672.666 486.759 674.858 489.485C675.307 489.928 675.812 490.311 676.359 490.626Z" fill="black"/>
<path opacity="0.5" d="M764.196 392.97L689.122 436.393C684.028 439.568 679.831 443.992 676.93 449.246L668.671 444.441C671.571 439.196 675.756 434.773 680.833 431.588L756.058 388.166L764.196 392.97Z" fill="white"/>
<path opacity="0.2" d="M698.04 447.894C698.037 446.809 697.896 445.73 697.62 444.681C702.575 443.329 706.239 446.422 706.239 452.609C706.022 456.621 704.862 460.526 702.853 464.006C700.845 467.486 698.043 470.444 694.677 472.638C689.332 475.792 684.767 474.14 683.536 469.125C684.596 468.891 685.61 468.485 686.539 467.924C689.891 465.719 692.678 462.758 694.675 459.279C696.673 455.8 697.826 451.9 698.04 447.894Z" fill="black"/>
<path d="M594.258 421.526V435.07C594.258 440.565 596.18 444.379 599.273 446.181L607.471 450.895C610.474 452.727 614.919 452.487 619.693 449.754L694.768 406.331V352.938L686.72 348.344L611.495 391.797C606.495 395.056 602.329 399.444 599.335 404.608C596.341 409.772 594.602 415.567 594.258 421.526ZM628.282 404.649C628.567 405.697 628.708 406.778 628.702 407.863C628.488 411.876 627.329 415.781 625.32 419.262C623.311 422.743 620.509 425.7 617.141 427.892C616.205 428.44 615.193 428.845 614.138 429.094C613.877 428.113 613.736 427.105 613.718 426.091C613.932 422.078 615.091 418.172 617.1 414.691C619.109 411.211 621.911 408.254 625.279 406.061C626.214 405.462 627.224 404.987 628.282 404.649Z" fill="#DC303C"/>
<path opacity="0.2" d="M607.802 451.107H607.652H607.441L599.273 446.332C596.12 444.561 594.258 440.747 594.258 435.221V421.678C594.29 418.784 594.746 415.911 595.61 413.15C596.514 410.195 597.753 407.354 599.303 404.681L607.471 409.366C606.697 410.704 606.005 412.088 605.399 413.51C603.535 417.545 602.513 421.919 602.396 426.363V439.906C602.14 443.393 603.213 446.847 605.399 449.576C606.107 450.219 606.92 450.737 607.802 451.107Z" fill="black"/>
<path opacity="0.5" d="M694.859 352.938L619.784 396.361C614.684 399.527 610.485 403.954 607.592 409.214L599.424 404.529C602.273 399.279 606.405 394.837 611.436 391.617L686.721 348.344L694.859 352.938Z" fill="white"/>
<path opacity="0.2" d="M628.702 407.864C628.7 406.779 628.559 405.699 628.281 404.651C633.236 403.269 636.9 406.392 636.9 412.579C636.679 416.59 635.517 420.493 633.508 423.973C631.5 427.452 628.701 430.41 625.339 432.608C619.993 435.611 615.429 434.08 614.167 429.065C615.227 428.845 616.242 428.449 617.17 427.894C620.526 425.691 623.318 422.73 625.32 419.252C627.323 415.773 628.481 411.872 628.702 407.864Z" fill="black"/>
<path d="M663.657 300.027L651.555 252.94" stroke="#E0E0E0" stroke-width="9.00891" stroke-linecap="round" stroke-linejoin="round"/>
<path d="M629.873 319.666L585.129 284.321" stroke="#E0E0E0" stroke-width="9.00891" stroke-linecap="round" stroke-linejoin="round"/>
<path d="M620.534 358.734L568.252 362.788" stroke="#E0E0E0" stroke-width="9.00891" stroke-linecap="round" stroke-linejoin="round"/>
<path d="M494.078 714.827L725.847 848.64V897.918L494.078 764.106V714.827Z" fill="#DC303C"/>
<path opacity="0.35" d="M494.078 714.827L725.847 848.64V897.918L494.078 764.106V714.827Z" fill="black"/>
<path d="M957.618 714.827L725.849 848.64V897.918L957.618 764.106V714.827Z" fill="#DC303C"/>
<path opacity="0.2" d="M957.618 714.827L725.849 848.64V897.918L957.618 764.106V714.827Z" fill="black"/>
<path d="M957.617 714.826L725.847 581.014L494.078 714.826L725.847 848.639L957.617 714.826Z" fill="#DC303C"/>
<path opacity="0.15" d="M957.617 714.826L725.847 581.014L494.078 714.826L725.847 848.639L957.617 714.826Z" fill="black"/>
<path opacity="0.1" d="M725.847 848.64V834.526L518.462 714.827H494.078L725.847 848.64Z" fill="black"/>
<path opacity="0.1" d="M725.849 581.014V595.098L933.204 714.826H957.618L725.849 581.014Z" fill="black"/>
<path d="M957.618 714.827H933.204L725.849 834.526V848.64L957.618 714.827Z" fill="#DC303C"/>
<path d="M725.847 581.014V595.098L518.462 714.826H494.078L725.847 581.014Z" fill="#DC303C"/>
<path d="M726.718 656.838L826.296 714.345C833.744 718.639 833.744 725.606 826.296 729.901L752.033 772.783C747.849 774.921 743.218 776.035 738.52 776.035C733.821 776.035 729.19 774.921 725.006 772.783L625.428 715.306C617.98 710.982 617.98 704.015 625.428 699.721L699.691 656.838C703.883 654.726 708.511 653.626 713.205 653.626C717.898 653.626 722.526 654.726 726.718 656.838Z" fill="#979797"/>
<path d="M752.003 772.784L823.804 731.343L726.718 675.247C722.527 673.135 717.898 672.035 713.205 672.035C708.511 672.035 703.883 673.135 699.691 675.247L627.86 716.718L725.006 772.784C729.186 774.917 733.812 776.029 738.505 776.029C743.197 776.029 747.823 774.917 752.003 772.784Z" fill="#D0D0D0"/>
<path d="M666.66 714.887L710.233 689.752C711.036 689.339 711.927 689.123 712.83 689.123C713.734 689.123 714.624 689.339 715.428 689.752L720.803 692.755C721.114 692.865 721.383 693.068 721.574 693.337C721.765 693.606 721.867 693.927 721.867 694.257C721.867 694.586 721.765 694.908 721.574 695.177C721.383 695.446 721.114 695.649 720.803 695.758L677.23 720.923C676.419 721.312 675.532 721.514 674.633 721.514C673.733 721.514 672.846 721.312 672.035 720.923L666.69 717.92C666.367 717.821 666.084 717.622 665.882 717.351C665.68 717.08 665.569 716.752 665.566 716.415C665.563 716.077 665.667 715.747 665.863 715.472C666.06 715.198 666.339 714.993 666.66 714.887Z" fill="#263238"/>
<path d="M731.614 752.513L775.187 727.378C775.991 726.965 776.881 726.749 777.785 726.749C778.689 726.749 779.579 726.965 780.382 727.378L785.758 730.381C786.069 730.491 786.338 730.694 786.529 730.963C786.719 731.232 786.822 731.553 786.822 731.883C786.822 732.212 786.719 732.534 786.529 732.803C786.338 733.072 786.069 733.275 785.758 733.384L742.185 758.549C741.374 758.938 740.486 759.14 739.587 759.14C738.688 759.14 737.8 758.938 736.99 758.549L731.644 755.546C731.322 755.447 731.039 755.248 730.837 754.977C730.635 754.706 730.524 754.378 730.521 754.041C730.517 753.703 730.621 753.373 730.818 753.098C731.015 752.824 731.294 752.619 731.614 752.513Z" fill="#263238"/>
<path d="M625.16 812.214C624.91 807.653 623.589 803.215 621.303 799.261C619.018 795.306 615.833 791.945 612.007 789.451C610.682 788.484 609.122 787.89 607.49 787.732C605.858 787.573 604.213 787.856 602.727 788.55L597.052 791.944C595.716 792.893 594.656 794.18 593.98 795.673C593.305 797.166 593.038 798.812 593.208 800.442C593.461 804.994 594.781 809.423 597.061 813.372C599.34 817.321 602.516 820.678 606.331 823.175C607.661 824.141 609.226 824.735 610.863 824.893C612.5 825.052 614.149 824.769 615.64 824.075L621.286 820.682C622.627 819.744 623.694 818.464 624.375 816.975C625.056 815.486 625.327 813.842 625.16 812.214Z" fill="#DC303C"/>
<path opacity="0.1" d="M606.33 792.784C610.154 795.274 613.338 798.629 615.623 802.579C617.908 806.528 619.23 810.961 619.483 815.517C619.483 823.895 613.477 827.288 606.33 823.114C602.514 820.618 599.339 817.26 597.059 813.312C594.78 809.363 593.46 804.934 593.207 800.382C593.207 792.064 599.092 788.67 606.33 792.784Z" fill="black"/>
<path d="M455.4 889.39C440.743 889.646 426.266 886.13 413.359 879.179L259.637 790.412C247.264 783.295 240.448 773.445 240.448 762.694C240.448 751.944 247.264 742.094 259.637 734.977L437.773 632.125C457.292 620.864 473.809 592.276 473.809 569.753V6.00594C473.809 4.41306 474.441 2.88543 475.568 1.7591C476.694 0.632767 478.222 0 479.814 0C481.407 0 482.935 0.632767 484.061 1.7591C485.188 2.88543 485.82 4.41306 485.82 6.00594V569.753C485.82 596.96 467.352 628.912 443.779 642.515L265.643 745.367C257.144 750.262 252.46 756.418 252.46 762.694C252.46 768.97 257.144 775.126 265.643 780.021L419.365 868.789C439.244 880.23 471.526 880.26 491.436 868.789L604.798 803.384C605.482 802.95 606.246 802.658 607.045 802.527C607.845 802.395 608.662 802.427 609.449 802.62C610.236 802.812 610.975 803.162 611.623 803.648C612.271 804.134 612.815 804.746 613.22 805.447C613.625 806.149 613.885 806.925 613.982 807.729C614.08 808.533 614.014 809.348 613.788 810.126C613.563 810.904 613.182 811.629 612.669 812.255C612.156 812.883 611.522 813.399 610.804 813.775L497.442 879.179C484.536 886.132 470.058 889.648 455.4 889.39Z" fill="#37474F"/>
</svg>
