<svg width="171" height="44" viewBox="0 0 171 44" fill="none" xmlns="http://www.w3.org/2000/svg">
<rect width="171" height="44" rx="5.6104" fill="#080708"/>
<path d="M89.6784 21.1209L89.6784 23.641L88.0987 23.641L88.0987 25.2937L89.6784 25.2937L89.6784 30.9092C89.6784 32.8267 90.5458 33.5936 92.7281 33.5936C93.1116 33.5936 93.4768 33.548 93.7964 33.4932L93.7964 31.8588C93.5224 31.8862 93.349 31.9044 93.0476 31.9044C92.0706 31.9044 91.6415 31.4479 91.6415 30.407L91.6415 25.2937L93.7964 25.2937L93.7964 23.641L91.6415 23.641L91.6415 21.1209L89.6784 21.1209Z" fill="white"/>
<path d="M99.3556 33.7306C102.259 33.7306 104.04 31.7857 104.04 28.5625C104.04 25.3576 102.25 23.4036 99.3556 23.4036C96.452 23.4036 94.6623 25.3576 94.6623 28.5625C94.6623 31.7857 96.4429 33.7306 99.3556 33.7306ZM99.3556 31.9866C97.6481 31.9866 96.6894 30.7357 96.6894 28.5625C96.6894 26.4077 97.6481 25.1476 99.3556 25.1476C101.054 25.1476 102.022 26.4077 102.022 28.5625C102.022 30.7266 101.054 31.9866 99.3556 31.9866Z" fill="white"/>
<path d="M105.563 33.5389L107.526 33.5389L107.526 27.6677C107.526 26.2707 108.576 25.3302 110.065 25.3302C110.412 25.3302 110.996 25.3941 111.16 25.4489L111.16 23.5132C110.95 23.4584 110.576 23.431 110.284 23.431C108.987 23.431 107.882 24.1432 107.599 25.1202L107.453 25.1202L107.453 23.5954L105.563 23.5954L105.563 33.5389Z" fill="white"/>
<path d="M116.035 25.0746C117.487 25.0746 118.436 26.0881 118.482 27.6495L113.46 27.6495C113.569 26.0972 114.583 25.0746 116.035 25.0746ZM118.473 30.8544C118.107 31.6305 117.295 32.0597 116.108 32.0597C114.537 32.0597 113.524 30.9548 113.46 29.2108L113.46 29.1013L120.481 29.1013L120.481 28.4165C120.481 25.2937 118.811 23.4036 116.044 23.4036C113.241 23.4036 111.46 25.4215 111.46 28.5991C111.46 31.7766 113.204 33.7306 116.053 33.7306C118.327 33.7306 119.915 32.6349 120.363 30.8544L118.473 30.8544Z" fill="white"/>
<path d="M76.8044 29.8669C76.9558 32.3086 78.9906 33.8701 82.019 33.8701C85.2556 33.8701 87.2809 32.2329 87.2809 29.6208C87.2809 27.5672 86.1263 26.4315 83.325 25.7785L81.8203 25.4094C80.041 24.993 79.3218 24.4346 79.3218 23.4598C79.3218 22.2295 80.4385 21.4251 82.1136 21.4251C83.7036 21.4251 84.8014 22.2106 85.0001 23.4693L87.0632 23.4693C86.9402 21.1696 84.9149 19.5513 82.142 19.5513C79.1609 19.5513 77.1735 21.1696 77.1735 23.6018C77.1735 25.6081 78.2997 26.8006 80.7698 27.3779L82.53 27.8038C84.3376 28.2296 85.1326 28.8542 85.1326 29.8953C85.1326 31.1066 83.8834 31.9868 82.1799 31.9868C80.3534 31.9868 79.0852 31.1634 78.9054 29.8669L76.8044 29.8669Z" fill="white"/>
<path d="M56.4683 23.431C55.117 23.431 53.9482 24.1067 53.3456 25.2389L53.1995 25.2389L53.1995 23.5954L51.3094 23.5954L51.3094 36.8442L53.2725 36.8442L53.2725 32.0323L53.4278 32.0323C53.9482 33.0823 55.0713 33.7032 56.4866 33.7032C58.9976 33.7032 60.5955 31.7218 60.5955 28.5625C60.5955 25.4033 58.9976 23.431 56.4683 23.431ZM55.9114 31.941C54.2678 31.941 53.236 30.6444 53.236 28.5717C53.236 26.4898 54.2678 25.1933 55.9205 25.1933C57.5823 25.1933 58.5776 26.4624 58.5776 28.5625C58.5776 30.6718 57.5823 31.941 55.9114 31.941Z" fill="white"/>
<path d="M67.4648 23.431C66.1134 23.431 64.9447 24.1067 64.3421 25.2389L64.196 25.2389L64.196 23.5954L62.3059 23.5954L62.3059 36.8442L64.269 36.8442L64.269 32.0323L64.4242 32.0323C64.9447 33.0823 66.0678 33.7032 67.4831 33.7032C69.9941 33.7032 71.592 31.7218 71.592 28.5625C71.592 25.4033 69.9941 23.431 67.4648 23.431ZM66.9078 31.941C65.2643 31.941 64.2325 30.6444 64.2325 28.5717C64.2325 26.4898 65.2643 25.1933 66.917 25.1933C68.5788 25.1933 69.574 26.4624 69.574 28.5625C69.574 30.6718 68.5788 31.941 66.9078 31.941Z" fill="white"/>
<path d="M47.7872 33.5389L50.0396 33.5389L45.1089 19.8825L42.8281 19.8825L37.8975 33.5389L40.0742 33.5389L41.3328 29.9142L46.538 29.9142L47.7872 33.5389ZM43.8597 22.362L44.0206 22.362L45.9985 28.135L41.8723 28.135L43.8597 22.362Z" fill="white"/>
<path d="M39.2158 9.58147L39.2158 16.1694L41.5944 16.1694C43.5575 16.1694 44.6943 14.9595 44.6943 12.8549C44.6943 10.7822 43.5484 9.58147 41.5944 9.58147L39.2158 9.58147ZM40.2385 10.5128L41.4803 10.5128C42.8453 10.5128 43.6534 11.3802 43.6534 12.8686C43.6534 14.3797 42.859 15.238 41.4803 15.238L40.2385 15.238L40.2385 10.5128Z" fill="white"/>
<path d="M48.1759 16.2653C49.6277 16.2653 50.518 15.2928 50.518 13.6812C50.518 12.0788 49.6232 11.1018 48.1759 11.1018C46.7241 11.1018 45.8293 12.0788 45.8293 13.6812C45.8293 15.2928 46.7196 16.2653 48.1759 16.2653ZM48.1759 15.3933C47.3222 15.3933 46.8428 14.7678 46.8428 13.6812C46.8428 12.6038 47.3222 11.9738 48.1759 11.9738C49.0251 11.9738 49.509 12.6038 49.509 13.6812C49.509 14.7632 49.0251 15.3933 48.1759 15.3933Z" fill="white"/>
<path d="M58.0994 11.1976L57.1178 11.1976L56.2321 14.9915L56.1545 14.9915L55.1318 11.1976L54.1913 11.1976L53.1687 14.9915L53.0956 14.9915L52.2054 11.1976L51.2101 11.1976L52.5797 16.1694L53.5887 16.1694L54.6114 12.5079L54.689 12.5079L55.7162 16.1694L56.7343 16.1694L58.0994 11.1976Z" fill="white"/>
<path d="M59.2298 16.1694L60.2113 16.1694L60.2113 13.2612C60.2113 12.4851 60.6724 12.0011 61.3983 12.0011C62.1242 12.0011 62.4712 12.3983 62.4712 13.1973L62.4712 16.1694L63.4528 16.1694L63.4528 12.9508C63.4528 11.7683 62.841 11.1018 61.7316 11.1018C60.9829 11.1018 60.4898 11.435 60.2478 11.9875L60.1748 11.9875L60.1748 11.1976L59.2298 11.1976L59.2298 16.1694Z" fill="white"/>
<path d="M64.9986 16.1694L65.9802 16.1694L65.9802 9.25732L64.9986 9.25732L64.9986 16.1694Z" fill="white"/>
<path d="M69.6718 16.2653C71.1236 16.2653 72.0139 15.2928 72.0139 13.6812C72.0139 12.0788 71.119 11.1018 69.6718 11.1018C68.22 11.1018 67.3252 12.0788 67.3252 13.6812C67.3252 15.2928 68.2154 16.2653 69.6718 16.2653ZM69.6718 15.3933C68.8181 15.3933 68.3387 14.7678 68.3387 13.6812C68.3387 12.6038 68.8181 11.9738 69.6718 11.9738C70.521 11.9738 71.0049 12.6038 71.0049 13.6812C71.0049 14.7632 70.521 15.3933 69.6718 15.3933Z" fill="white"/>
<path d="M74.9385 15.4252C74.4043 15.4252 74.0163 15.165 74.0163 14.7176C74.0163 14.2793 74.3267 14.0465 75.0115 14.0008L76.2259 13.9232L76.2259 14.3386C76.2259 14.955 75.6781 15.4252 74.9385 15.4252ZM74.6874 16.2516C75.3402 16.2516 75.8835 15.9685 76.1803 15.4709L76.2579 15.4709L76.2579 16.1694L77.2029 16.1694L77.2029 12.7727C77.2029 11.7227 76.4999 11.1018 75.2535 11.1018C74.1258 11.1018 73.3223 11.6496 73.2219 12.5033L74.1715 12.5033C74.2811 12.1518 74.66 11.9509 75.2078 11.9509C75.879 11.9509 76.2259 12.2477 76.2259 12.7727L76.2259 13.2019L74.8791 13.2795C73.6967 13.3525 73.0301 13.8684 73.0301 14.7632C73.0301 15.6718 73.7286 16.2516 74.6874 16.2516Z" fill="white"/>
<path d="M80.5339 16.2516C81.2187 16.2516 81.7985 15.9274 82.0953 15.3841L82.1729 15.3841L82.1729 16.1694L83.1133 16.1694L83.1133 9.25732L82.1318 9.25732L82.1318 11.9875L82.0587 11.9875C81.7894 11.4396 81.2141 11.1155 80.5339 11.1155C79.2784 11.1155 78.4703 12.1107 78.4703 13.6812C78.4703 15.2563 79.2692 16.2516 80.5339 16.2516ZM80.8124 11.9966C81.6341 11.9966 82.15 12.6494 82.15 13.6858C82.15 14.7267 81.6387 15.3704 80.8124 15.3704C79.9815 15.3704 79.4838 14.7358 79.4838 13.6812C79.4838 12.6357 79.986 11.9966 80.8124 11.9966Z" fill="white"/>
<path d="M89.4785 16.2653C90.9303 16.2653 91.8205 15.2928 91.8205 13.6812C91.8205 12.0788 90.9257 11.1018 89.4785 11.1018C88.0267 11.1018 87.1318 12.0788 87.1318 13.6812C87.1318 15.2928 88.0221 16.2653 89.4785 16.2653ZM89.4785 15.3933C88.6247 15.3933 88.1454 14.7678 88.1454 13.6812C88.1454 12.6038 88.6247 11.9738 89.4785 11.9738C90.3276 11.9738 90.8116 12.6038 90.8116 13.6812C90.8116 14.7632 90.3276 15.3933 89.4785 15.3933Z" fill="white"/>
<path d="M93.1199 16.1694L94.1014 16.1694L94.1014 13.2612C94.1014 12.4851 94.5625 12.0011 95.2884 12.0011C96.0143 12.0011 96.3613 12.3983 96.3613 13.1973L96.3613 16.1694L97.3429 16.1694L97.3429 12.9508C97.3429 11.7683 96.7311 11.1018 95.6217 11.1018C94.873 11.1018 94.3799 11.435 94.1379 11.9875L94.0649 11.9875L94.0649 11.1976L93.1199 11.1976L93.1199 16.1694Z" fill="white"/>
<path d="M101.864 9.9604L101.864 11.2205L101.074 11.2205L101.074 12.0468L101.864 12.0468L101.864 14.8545C101.864 15.8133 102.297 16.1968 103.388 16.1968C103.58 16.1968 103.763 16.1739 103.923 16.1466L103.923 15.3293C103.786 15.343 103.699 15.3522 103.548 15.3522C103.06 15.3522 102.845 15.1239 102.845 14.6034L102.845 12.0468L103.923 12.0468L103.923 11.2205L102.845 11.2205L102.845 9.9604L101.864 9.9604Z" fill="white"/>
<path d="M105.24 16.1694L106.222 16.1694L106.222 13.2658C106.222 12.5125 106.669 12.0057 107.473 12.0057C108.167 12.0057 108.536 12.4075 108.536 13.2019L108.536 16.1694L109.518 16.1694L109.518 12.9599C109.518 11.7774 108.865 11.1063 107.806 11.1063C107.057 11.1063 106.532 11.4396 106.29 11.9966L106.213 11.9966L106.213 9.25732L105.24 9.25732L105.24 16.1694Z" fill="white"/>
<path d="M113.059 11.9372C113.785 11.9372 114.26 12.444 114.282 13.2247L111.771 13.2247C111.826 12.4486 112.333 11.9372 113.059 11.9372ZM114.278 14.8271C114.095 15.2152 113.689 15.4298 113.095 15.4298C112.31 15.4298 111.803 14.8774 111.771 14.0054L111.771 13.9506L115.282 13.9506L115.282 13.6082C115.282 12.0468 114.447 11.1018 113.063 11.1018C111.662 11.1018 110.772 12.1107 110.772 13.6995C110.772 15.2883 111.644 16.2653 113.068 16.2653C114.205 16.2653 114.999 15.7174 115.223 14.8271L114.278 14.8271Z" fill="white"/>
<path d="M26.5616 23.4355C26.582 21.8471 27.4308 20.3441 28.7772 19.5122C27.9278 18.293 26.505 17.5199 25.0248 17.4734C23.446 17.3068 21.9154 18.4229 21.1109 18.4229C20.2908 18.4229 19.0521 17.4899 17.7183 17.5175C15.9796 17.574 14.3588 18.5674 13.5129 20.0951C11.6946 23.259 13.0509 27.9089 14.7927 30.4664C15.6641 31.7187 16.6826 33.1176 18.0153 33.068C19.3194 33.0136 19.8064 32.2322 21.3806 32.2322C22.9401 32.2322 23.3971 33.068 24.7568 33.0365C26.1561 33.0136 27.0378 31.7786 27.8787 30.5144C28.5048 29.622 28.9866 28.6358 29.3063 27.5923C27.6618 26.8932 26.5636 25.23 26.5616 23.4355Z" fill="white"/>
<path d="M23.9934 15.7915C24.7564 14.8709 25.1322 13.6877 25.0412 12.4932C23.8756 12.6162 22.7988 13.1761 22.0255 14.0613C21.2693 14.9262 20.8758 16.0886 20.9502 17.2375C22.1163 17.2496 23.2627 16.7049 23.9934 15.7915Z" fill="white"/>
</svg>
