<svg width="53" height="61" viewBox="0 0 53 61" fill="none" xmlns="http://www.w3.org/2000/svg">
<g clip-path="url(#clip0_3672_9103)">
<path d="M3.07358 60.9936C0.938745 59.2043 0.582939 56.9677 1.04822 54.2557C2.9641 42.9606 4.71577 31.6376 6.60428 20.3425C6.87797 18.665 7.28852 16.9316 8.82122 15.8412C9.42336 15.4219 10.0802 15.2821 10.7097 15.6735C11.2571 16.009 11.394 16.7079 11.0382 17.1832C7.69907 21.6845 8.43805 27.2482 7.37063 32.2806C5.81056 39.7734 4.79788 47.4339 3.67572 55.0106C3.15569 58.4215 3.56624 58.7011 6.74113 57.5268C11.394 55.8214 16.0195 54.1159 20.6449 52.3546C22.2324 51.7395 23.5461 51.5997 23.9019 53.7525C24.203 55.4859 25.2157 55.5698 26.6389 55.2622C32.4413 53.9202 38.2437 52.6342 44.0734 51.3481C45.7977 50.9846 46.8104 50.1738 47.0567 48.2168C47.8504 41.9541 48.6989 35.6915 49.739 29.4848C50.1495 27.1084 49.3831 25.9062 47.2757 25.5707C44.4292 25.0954 44.0734 22.9985 43.6081 20.65C42.8144 16.4563 43.4439 11.8991 40.8438 8.1248C40.5154 7.62155 40.6522 6.86668 41.1996 6.61506C41.6375 6.41935 42.3765 6.41935 42.787 6.67097C43.9913 7.42584 44.6482 8.656 44.8398 10.0819C45.1135 12.011 45.3598 13.9401 45.6061 15.8692C46.0714 19.4199 45.9346 23.1942 50.6695 24.2566C52.3391 24.6201 52.7496 26.4653 52.4759 28.2547C51.4632 35.3001 50.5327 42.3456 49.4926 49.3631C49.1642 51.5997 47.9052 53.1094 45.6335 53.6127C39.0648 55.0945 32.496 56.6322 25.9273 58.114C24.723 58.3935 23.3819 58.1419 22.8619 57.1634C21.4934 54.5353 19.7417 55.402 17.8806 56.1848C13.8573 57.8623 9.58758 58.8968 5.72845 60.9936H3.07358Z" fill="#010101"/>
<path d="M26.7491 6.41938C27.1049 3.28806 28.6102 1.13529 31.5661 0.436334C34.4126 -0.234661 36.6843 1.05141 38.0527 3.62356C39.5581 6.41938 38.9559 9.24315 36.4927 10.9486C34.7136 12.2067 33.7831 13.325 34.0841 15.5058C34.221 16.4563 34.0294 17.4628 32.8251 17.5188C31.5935 17.5747 31.3198 16.5682 31.4566 15.6176C31.8398 13.2691 30.7724 11.9551 28.8565 10.8088C27.3512 9.91414 26.9133 8.09686 26.7217 6.39142L26.7491 6.41938Z" fill="#040404"/>
<path d="M40.544 37.2301C40.3798 38.4882 40.2703 39.8581 39.3671 40.7248C37.4512 42.5421 35.1796 43.9959 35.7817 47.267C35.8912 47.8821 35.1796 48.5531 34.4132 48.4413C33.6469 48.3294 33.2637 47.6025 33.3732 46.9036C33.8111 44.3035 32.5247 42.9894 30.5541 41.4797C28.2824 39.7742 27.9813 37.0343 29.3772 34.3783C30.8551 31.5825 33.291 30.6319 36.1922 31.4148C38.9839 32.1696 40.3251 34.3224 40.544 37.2301Z" fill="#050505"/>
<path d="M19.7147 13.4646C22.2875 13.6883 24.2581 14.9743 25.1339 17.4626C26.0371 20.0348 25.6539 22.6908 23.2728 24.2285C21.439 25.4307 20.5084 26.6049 20.8095 28.8416C20.9464 29.7362 20.7548 30.7986 19.4684 30.7148C18.401 30.6589 18.2641 29.7362 18.3736 28.9255C18.7294 26.549 17.6072 25.3468 15.7461 24.0607C13.4744 22.4951 13.146 19.7831 14.1313 17.2389C15.0892 14.8066 17.0872 13.6044 19.6873 13.4646H19.7147Z" fill="#030303"/>
<path d="M22.8617 4.49081C19.2489 2.70149 19.2215 5.77689 18.7288 8.2372C18.4825 9.38348 18.8109 11.2287 16.9772 10.8932C15.2255 10.5577 16.0192 8.93616 16.2108 7.76191C16.375 6.75542 16.4571 5.69301 16.7582 4.74243C17.7983 1.30358 21.9858 0.0734247 24.7228 2.36599C25.2428 2.78536 25.4618 3.26065 25.2154 3.81982C24.8323 4.74243 23.9838 4.6306 22.8617 4.51877V4.49081Z" fill="#0A0A0A"/>
<path d="M32.8245 9.88672C30.8812 9.55122 29.458 8.57269 29.458 6.39195C29.458 4.43489 30.6075 3.17677 32.5508 3.06494C34.6583 2.92515 35.972 4.12735 36.0815 6.25216C36.191 8.4329 34.7951 9.46735 32.8245 9.88672Z" fill="#F3F3F3"/>
<path d="M34.4947 33.8469C36.739 33.9867 37.8612 35.2448 37.8612 37.1739C37.8612 39.2988 36.6021 40.6407 34.4399 40.5289C32.3051 40.445 31.1829 39.131 31.3198 36.8944C31.4566 34.7975 32.7704 33.9588 34.4947 33.8469Z" fill="#F0F0F0"/>
<path d="M22.9164 19.5321C22.7522 21.6569 21.63 23.0268 19.5225 22.9709C17.6067 22.9429 16.375 21.7128 16.3477 19.6718C16.3477 17.4632 17.5519 16.1771 19.6868 16.205C21.6574 16.205 22.6974 17.5191 22.9164 19.5321Z" fill="#F6F6F6"/>
<path d="M32.8798 7.73363C32.1681 7.64976 31.566 7.37018 31.4292 6.58735C31.2923 5.77656 31.7302 5.2174 32.4966 5.13353C33.3724 5.02169 34.084 5.30127 34.1388 6.36368C34.1935 7.23039 33.564 7.50997 32.8798 7.73363Z" fill="#1B1B1B"/>
<path d="M35.9986 37.1735C35.8892 37.9843 35.3965 38.3757 34.6575 38.4037C33.8638 38.4596 33.3164 38.0682 33.3164 37.2574C33.3164 36.4746 33.7543 35.9993 34.5754 35.9993C35.3691 35.9993 35.8071 36.4466 36.026 37.1735H35.9986Z" fill="#121212"/>
<path d="M19.5775 18.2178C20.4807 18.2737 21.1102 18.749 21.0281 19.6996C20.9734 20.4265 20.3986 20.9297 19.6596 20.9577C18.7017 20.9577 18.1817 20.3426 18.209 19.4479C18.2364 18.721 18.7838 18.2457 19.5775 18.2178Z" fill="#2E2E2E"/>
</g>
<defs>
<clipPath id="clip0_3672_9103">
<rect width="51.7288" height="60.7251" fill="white" transform="translate(0.856445 0.268799)"/>
</clipPath>
</defs>
</svg>
