<svg width="171" height="44" viewBox="0 0 171 44" fill="none" xmlns="http://www.w3.org/2000/svg">
<rect x="0.5" y="0.5" width="170" height="43" rx="5.1104" fill="#080708"/>
<path d="M75.2026 23.9259C72.6067 23.9259 70.4909 25.8938 70.4909 28.6042C70.4909 31.2981 72.6067 33.2825 75.2026 33.2825C77.7996 33.2825 79.9154 31.2981 79.9154 28.6042C79.9143 25.8938 77.7985 23.9259 75.2026 23.9259ZM75.2026 31.4411C73.7799 31.4411 72.5537 30.2718 72.5537 28.6053C72.5537 26.9212 73.781 25.7695 75.2026 25.7695C76.6253 25.7695 77.8515 26.9212 77.8515 28.6053C77.8515 30.2707 76.6253 31.4411 75.2026 31.4411ZM64.9227 23.9259C62.3268 23.9259 60.211 25.8938 60.211 28.6042C60.211 31.2981 62.3268 33.2825 64.9227 33.2825C67.5197 33.2825 69.6355 31.2981 69.6355 28.6042C69.6355 25.8938 67.5197 23.9259 64.9227 23.9259ZM64.9227 31.4411C63.5 31.4411 62.2738 30.2718 62.2738 28.6053C62.2738 26.9212 63.5011 25.7695 64.9227 25.7695C66.3454 25.7695 67.5716 26.9212 67.5716 28.6053C67.5727 30.2707 66.3454 31.4411 64.9227 31.4411ZM52.6959 25.3625L52.6959 27.3469L57.4616 27.3469C57.3193 28.4634 56.9462 29.2785 56.3767 29.845C55.6836 30.5358 54.5986 31.2981 52.6959 31.2981C49.7622 31.2981 47.4687 28.9408 47.4687 26.017C47.4687 23.0932 49.7622 20.7359 52.6959 20.7359C54.2786 20.7359 55.4341 21.3563 56.2873 22.1538L57.6923 20.7535C56.5003 19.6194 54.9187 18.7515 52.6959 18.7515C48.6773 18.7515 45.2988 22.0119 45.2988 26.017C45.2988 30.0221 48.6773 33.2825 52.6959 33.2825C54.8646 33.2825 56.5014 32.573 57.7806 31.2442C59.0962 29.933 59.5057 28.0894 59.5057 26.6011C59.5057 26.1413 59.4704 25.7156 59.3986 25.3614L52.6959 25.3614L52.6959 25.3625ZM102.702 26.9036C102.312 25.8586 101.12 23.9259 98.6839 23.9259C96.2657 23.9259 94.2558 25.8223 94.2558 28.6042C94.2558 31.2266 96.248 33.2825 98.9146 33.2825C101.066 33.2825 102.311 31.9713 102.827 31.209L101.227 30.1453C100.694 30.9252 99.9642 31.4389 98.9146 31.4389C97.866 31.4389 97.1188 30.9604 96.6387 30.021L102.915 27.4338L102.702 26.9036ZM96.301 28.4634C96.248 26.655 97.706 25.7343 98.7556 25.7343C99.5735 25.7343 100.267 26.1424 100.498 26.7265L96.301 28.4634ZM91.1986 32.9998L93.2603 32.9998L93.2603 19.2487L91.1986 19.2487L91.1986 32.9998ZM87.819 24.972L87.7484 24.972C87.2859 24.422 86.3963 23.9259 85.2772 23.9259C82.9296 23.9259 80.7785 25.9818 80.7785 28.6229C80.7785 31.2453 82.9296 33.2836 85.2772 33.2836C86.3974 33.2836 87.2859 32.7875 87.7484 32.221L87.819 32.221L87.819 32.8942C87.819 34.6839 86.8588 35.6409 85.3125 35.6409C84.0499 35.6409 83.2673 34.7378 82.9473 33.9755L81.1515 34.7202C81.667 35.9599 83.0356 37.4845 85.3125 37.4845C87.7307 37.4845 89.7759 36.0666 89.7759 32.6104L89.7759 24.2108L87.8201 24.2108L87.8201 24.972L87.819 24.972ZM85.4549 31.4411C84.0322 31.4411 82.8413 30.2531 82.8413 28.6229C82.8413 26.974 84.0322 25.7695 85.4549 25.7695C86.8588 25.7695 87.9614 26.974 87.9614 28.6229C87.9614 30.2531 86.8588 31.4411 85.4549 31.4411ZM112.364 19.2487L107.43 19.2487L107.43 32.9998L109.488 32.9998L109.488 27.7902L112.363 27.7902C114.646 27.7902 116.891 26.1435 116.891 23.52C116.891 20.8965 114.647 19.2487 112.364 19.2487ZM112.417 25.8762L109.488 25.8762L109.488 21.1627L112.417 21.1627C113.957 21.1627 114.831 22.4332 114.831 23.52C114.831 24.5848 113.957 25.8762 112.417 25.8762ZM125.145 23.9017C123.654 23.9017 122.11 24.5562 121.471 26.0071L123.299 26.7672C123.689 26.0071 124.418 25.7585 125.18 25.7585C126.246 25.7585 127.328 26.3954 127.346 27.5273L127.346 27.6692C126.973 27.4569 126.174 27.139 125.198 27.139C123.228 27.139 121.222 28.2181 121.222 30.2344C121.222 32.0747 122.837 33.2594 124.647 33.2594C126.031 33.2594 126.795 32.6401 127.274 31.9141L127.345 31.9141L127.345 32.9756L129.334 32.9756L129.334 27.7033C129.335 25.2635 127.505 23.9017 125.145 23.9017ZM124.896 31.4378C124.222 31.4378 123.281 31.1012 123.281 30.2696C123.281 29.2081 124.453 28.8011 125.465 28.8011C126.369 28.8011 126.796 28.9958 127.346 29.2609C127.186 30.5358 126.086 31.4378 124.896 31.4378ZM136.576 24.202L134.215 30.164L134.145 30.164L131.695 24.202L129.476 24.202L133.15 32.5345L131.056 37.1699L133.203 37.1699L138.866 24.202L136.576 24.202ZM118.027 32.9998L120.086 32.9998L120.086 19.2487L118.027 19.2487L118.027 32.9998Z" fill="white"/>
<path d="M52.3347 11.268C52.3347 12.1898 52.061 12.9235 51.5125 13.4713C50.89 14.1225 50.0776 14.4481 49.0799 14.4481C48.1241 14.4481 47.3107 14.1181 46.6429 13.4581C45.9741 12.797 45.6396 11.9786 45.6396 11.0018C45.6396 10.0239 45.9741 9.20549 46.6429 8.54549C47.3107 7.88439 48.1241 7.5544 49.0799 7.5544C49.5545 7.5544 50.0081 7.64679 50.4386 7.83049C50.8701 8.01529 51.2156 8.2606 51.4738 8.5675L50.8922 9.1483C50.454 8.62579 49.8503 8.3651 49.0788 8.3651C48.3812 8.3651 47.7786 8.6093 47.2698 9.0977C46.761 9.5861 46.5072 10.2208 46.5072 11.0007C46.5072 11.7806 46.761 12.4153 47.2698 12.9037C47.7786 13.3921 48.3812 13.6363 49.0788 13.6363C49.8183 13.6363 50.4352 13.391 50.9286 12.8993C51.2487 12.5792 51.4341 12.1337 51.4838 11.5628L49.0788 11.5628L49.0788 10.7697L52.2873 10.7697C52.3204 10.9424 52.3347 11.1085 52.3347 11.268Z" fill="white"/>
<path d="M57.4229 8.51146L54.4076 8.51146L54.4076 10.6037L57.1271 10.6037L57.1271 11.3968L54.4076 11.3968L54.4076 13.489L57.4229 13.489L57.4229 14.3008L53.5566 14.3008L53.5566 7.70076L57.4229 7.70076L57.4229 8.51146Z" fill="white"/>
<path d="M61.0109 14.3008L60.16 14.3008L60.16 8.51146L58.3101 8.51146L58.3101 7.70076L62.8607 7.70076L62.8607 8.51146L61.0109 8.51146L61.0109 14.3008Z" fill="white"/>
<path d="M66.153 14.3008L66.153 7.70076L67.004 7.70076L67.004 14.3008L66.153 14.3008Z" fill="white"/>
<path d="M70.7777 14.3008L69.9268 14.3008L69.9268 8.51146L68.077 8.51146L68.077 7.70076L72.6275 7.70076L72.6275 8.51146L70.7777 8.51146L70.7777 14.3008Z" fill="white"/>
<path d="M81.2417 13.4482C80.5905 14.1148 79.7815 14.4481 78.8135 14.4481C77.8456 14.4481 77.0366 14.1148 76.3865 13.4482C75.7353 12.7816 75.4108 11.9654 75.4108 11.0007C75.4108 10.036 75.7353 9.21985 76.3865 8.55325C77.0366 7.88665 77.8456 7.55225 78.8135 7.55225C79.776 7.55225 80.5839 7.88775 81.2373 8.55765C81.8907 9.22755 82.2174 10.0415 82.2174 11.0007C82.2174 11.9654 81.8918 12.7816 81.2417 13.4482ZM77.0145 12.8949C77.5045 13.3899 78.1039 13.6363 78.8135 13.6363C79.5232 13.6363 80.1236 13.3888 80.6126 12.8949C81.1026 12.3999 81.3487 11.7685 81.3487 11.0007C81.3487 10.2329 81.1026 9.60155 80.6126 9.10655C80.1236 8.61155 79.5232 8.36515 78.8135 8.36515C78.1039 8.36515 77.5045 8.61265 77.0145 9.10655C76.5256 9.60155 76.2794 10.2329 76.2794 11.0007C76.2794 11.7685 76.5256 12.3999 77.0145 12.8949Z" fill="white"/>
<path d="M83.4116 14.3008L83.4116 7.70076L84.4469 7.70076L87.6653 12.8345L87.7017 12.8345L87.6653 11.5629L87.6653 7.70076L88.5162 7.70076L88.5162 14.3008L87.6277 14.3008L84.2603 8.91736L84.2239 8.91736L84.2603 10.189L84.2603 14.3008L83.4116 14.3008Z" fill="white"/>
<path d="M52.3347 11.268C52.3347 12.1898 52.061 12.9235 51.5125 13.4713C50.89 14.1225 50.0776 14.4481 49.0799 14.4481C48.1241 14.4481 47.3107 14.1181 46.6429 13.4581C45.9741 12.797 45.6396 11.9786 45.6396 11.0018C45.6396 10.0239 45.9741 9.20549 46.6429 8.54549C47.3107 7.88439 48.1241 7.5544 49.0799 7.5544C49.5545 7.5544 50.0081 7.64679 50.4386 7.83049C50.8701 8.01529 51.2156 8.2606 51.4738 8.5675L50.8922 9.1483C50.454 8.62579 49.8503 8.3651 49.0788 8.3651C48.3812 8.3651 47.7786 8.6093 47.2698 9.0977C46.761 9.5861 46.5072 10.2208 46.5072 11.0007C46.5072 11.7806 46.761 12.4153 47.2698 12.9037C47.7786 13.3921 48.3812 13.6363 49.0788 13.6363C49.8183 13.6363 50.4352 13.391 50.9286 12.8993C51.2487 12.5792 51.4341 12.1337 51.4838 11.5628L49.0788 11.5628L49.0788 10.7697L52.2873 10.7697C52.3204 10.9424 52.3347 11.1085 52.3347 11.268Z" stroke="#F9F9F9" stroke-width="0.12014" stroke-miterlimit="10"/>
<path d="M57.4229 8.51146L54.4076 8.51146L54.4076 10.6037L57.1271 10.6037L57.1271 11.3968L54.4076 11.3968L54.4076 13.489L57.4229 13.489L57.4229 14.3008L53.5566 14.3008L53.5566 7.70076L57.4229 7.70076L57.4229 8.51146Z" stroke="#F9F9F9" stroke-width="0.12014" stroke-miterlimit="10"/>
<path d="M61.0109 14.3008L60.16 14.3008L60.16 8.51146L58.3101 8.51146L58.3101 7.70076L62.8607 7.70076L62.8607 8.51146L61.0109 8.51146L61.0109 14.3008Z" stroke="#F9F9F9" stroke-width="0.12014" stroke-miterlimit="10"/>
<path d="M66.153 14.3008L66.153 7.70076L67.004 7.70076L67.004 14.3008L66.153 14.3008Z" stroke="#F9F9F9" stroke-width="0.12014" stroke-miterlimit="10"/>
<path d="M70.7777 14.3008L69.9268 14.3008L69.9268 8.51146L68.077 8.51146L68.077 7.70076L72.6275 7.70076L72.6275 8.51146L70.7777 8.51146L70.7777 14.3008Z" stroke="#F9F9F9" stroke-width="0.12014" stroke-miterlimit="10"/>
<path d="M81.2417 13.4482C80.5905 14.1148 79.7815 14.4481 78.8135 14.4481C77.8456 14.4481 77.0366 14.1148 76.3865 13.4482C75.7353 12.7816 75.4108 11.9654 75.4108 11.0007C75.4108 10.036 75.7353 9.21985 76.3865 8.55325C77.0366 7.88665 77.8456 7.55225 78.8135 7.55225C79.776 7.55225 80.5839 7.88775 81.2373 8.55765C81.8907 9.22755 82.2174 10.0415 82.2174 11.0007C82.2174 11.9654 81.8918 12.7816 81.2417 13.4482ZM77.0145 12.8949C77.5045 13.3899 78.1039 13.6363 78.8135 13.6363C79.5232 13.6363 80.1236 13.3888 80.6126 12.8949C81.1026 12.3999 81.3487 11.7685 81.3487 11.0007C81.3487 10.2329 81.1026 9.60155 80.6126 9.10655C80.1236 8.61155 79.5232 8.36515 78.8135 8.36515C78.1039 8.36515 77.5045 8.61265 77.0145 9.10655C76.5256 9.60155 76.2794 10.2329 76.2794 11.0007C76.2794 11.7685 76.5256 12.3999 77.0145 12.8949Z" stroke="#F9F9F9" stroke-width="0.12014" stroke-miterlimit="10"/>
<path d="M83.4116 14.3008L83.4116 7.70076L84.4469 7.70076L87.6653 12.8345L87.7017 12.8345L87.6653 11.5629L87.6653 7.70076L88.5162 7.70076L88.5162 14.3008L87.6277 14.3008L84.2603 8.91736L84.2239 8.91736L84.2603 10.189L84.2603 14.3008L83.4116 14.3008Z" stroke="#F9F9F9" stroke-width="0.12014" stroke-miterlimit="10"/>
<path fill-rule="evenodd" clip-rule="evenodd" d="M16.4396 14.984C16.3566 15.1708 16.3105 15.4032 16.3105 15.6759L16.3105 30.6918C16.3105 30.9645 16.3565 31.1965 16.4391 31.3829L24.1217 23.1826L16.4396 14.984ZM16.8427 31.8308C17.1297 31.9757 17.5106 31.94 17.9271 31.6879L26.9589 26.2105L24.5333 23.6219L16.8427 31.8308ZM27.4842 25.8927L30.3334 24.165C31.2222 23.6252 31.2222 22.7433 30.3334 22.2042L27.4817 20.4748L24.9449 23.1826L27.4842 25.8927ZM26.9568 20.1565L17.9271 14.6806C17.5112 14.4284 17.1305 14.3923 16.8434 14.5365L24.5333 22.7433L26.9568 20.1565Z" fill="white"/>
<rect x="0.5" y="0.5" width="170" height="43" rx="5.1104" stroke="black"/>
</svg>
