<svg version="1.1" id="Layer_1" xmlns="http://www.w3.org/2000/svg" xmlns:xlink="http://www.w3.org/1999/xlink" x="0px" y="0px"
	 width="100%" viewBox="0 0 1166 106" enable-background="new 0 0 1166 106" xml:space="preserve">
<path fill="#DB313D" opacity="1.000000" stroke="none" 
	d="
M389.000000,107.000000 
	C373.645782,107.000000 358.291534,107.000000 342.501465,106.532333 
	C342.065643,82.300362 342.065643,58.536057 342.065643,34.078331 
	C323.850494,34.078331 306.159821,34.078331 288.000000,34.078331 
	C288.000000,22.589813 288.000000,11.794907 288.000000,1.000000 
	C386.354218,1.000000 484.708466,1.000000 583.562378,1.467766 
	C584.062134,12.532579 584.062134,23.129625 584.062134,34.412300 
	C565.748352,34.412300 548.055176,34.412300 530.000000,34.412300 
	C530.000000,59.072697 530.000000,83.036346 530.000000,107.000000 
	C514.645752,107.000000 499.291534,107.000000 483.578674,106.542542 
	C483.220062,82.319069 483.220062,58.553051 483.220062,34.489594 
	C451.630463,34.489594 420.586273,34.489594 389.000000,34.489594 
	C389.000000,58.818932 389.000000,82.909470 389.000000,107.000000 
z"/>
<path fill="#DB323E" opacity="1.000000" stroke="none" 
	d="
M736.000000,1.000000 
	C776.687561,1.000000 817.375122,1.000000 858.675049,1.349509 
	C861.527161,2.307041 863.791016,2.838365 866.002380,3.536136 
	C876.611328,6.883720 882.615967,13.826314 883.492981,25.200281 
	C884.195923,34.315632 879.748657,41.078999 874.297852,47.469872 
	C874.422546,47.719357 874.458740,47.916702 874.576904,48.009510 
	C876.268860,49.337566 878.004578,50.611710 879.666931,51.975445 
	C889.521606,60.059753 894.904846,70.034073 891.768250,83.041512 
	C888.804810,95.330803 880.050171,101.816254 868.358887,105.030136 
	C866.530212,105.532814 864.784241,106.335861 863.000000,107.000000 
	C820.979126,107.000000 778.958191,107.000000 736.592346,106.545494 
	C736.271118,74.536980 736.304993,42.982971 736.304260,11.428962 
	C736.304199,7.952640 736.106201,4.476321 736.000000,1.000000 
M819.499878,78.190834 
	C826.473450,78.103249 833.479370,78.358810 840.399658,77.706306 
	C842.324158,77.524864 844.999146,74.934845 845.553772,72.952827 
	C846.451355,69.745560 843.842896,67.831100 840.714417,67.298569 
	C838.928345,66.994560 837.075439,67.013130 835.252319,67.009087 
	C824.290039,66.984779 813.327759,66.995872 802.365479,66.995377 
	C796.104126,66.995094 789.842712,66.995331 783.392273,66.995331 
	C783.392273,70.954422 783.392273,74.332642 783.392273,78.190842 
	C795.317627,78.190842 806.908752,78.190842 819.499878,78.190834 
M790.582520,38.187733 
	C795.244812,38.187748 799.907104,38.205326 804.569336,38.184010 
	C813.393005,38.143665 822.218628,38.172207 831.039124,37.978432 
	C834.153687,37.910011 836.572388,36.345570 836.749084,32.893890 
	C836.937378,29.215080 834.628174,27.498556 831.270386,27.024370 
	C829.795593,26.816113 828.281311,26.841639 826.784912,26.839426 
	C815.961792,26.823435 805.138611,26.827326 794.315491,26.825338 
	C790.711243,26.824677 787.107056,26.825235 783.392578,26.825235 
	C783.392578,30.905535 783.392578,34.299908 783.392578,38.187550 
	C785.684753,38.187550 787.645813,38.187550 790.582520,38.187733 
z"/>
<path fill="#DB313D" opacity="1.000000" stroke="none" 
	d="
M134.000000,107.000000 
	C89.718857,107.000000 45.437710,107.000000 1.078283,107.000000 
	C1.078283,71.760597 1.078283,36.520973 1.078283,1.000000 
	C45.020496,1.000000 89.041588,1.000000 133.563889,1.467679 
	C134.065094,11.531534 134.065094,21.127712 134.065094,31.274277 
	C105.038399,31.274277 76.660385,31.274277 48.116035,31.274277 
	C48.116035,34.748760 48.116035,37.656853 48.116035,41.106522 
	C76.792374,41.106522 105.169121,41.106522 133.624741,41.106522 
	C133.624741,50.003036 133.624741,58.345627 133.624741,67.208710 
	C104.798241,67.208710 76.424454,67.208710 48.221283,67.208710 
	C48.221283,70.653633 48.221283,73.560547 48.221283,77.026108 
	C77.008423,77.026108 105.373299,77.026108 134.000000,77.026108 
	C134.000000,87.404228 134.000000,97.202110 134.000000,107.000000 
z"/>
<path fill="#DC303C" opacity="1.000000" stroke="none" 
	d="
M1165.000000,107.000000 
	C1121.312378,107.000000 1077.624878,107.000000 1033.467773,106.531342 
	C1032.998901,71.041786 1032.999390,36.020893 1033.000000,1.000000 
	C1076.687622,1.000000 1120.375122,1.000000 1164.515381,1.468386 
	C1164.779785,9.254324 1164.014404,16.617292 1164.585327,23.875120 
	C1165.045654,29.727282 1162.346558,30.081165 1157.905029,30.061766 
	C1133.584595,29.955547 1109.263062,29.951521 1084.943115,30.110476 
	C1082.755127,30.124773 1078.920410,31.257095 1078.722046,32.378204 
	C1078.242310,35.090015 1079.460815,38.102257 1079.987549,40.972973 
	C1079.980347,40.952560 1080.023438,40.948292 1080.366211,41.179695 
	C1082.007324,41.608040 1083.305420,41.975044 1084.604126,41.976753 
	C1109.299805,42.009247 1133.995605,42.011768 1158.691162,41.963902 
	C1160.143799,41.961086 1161.595459,41.479973 1163.333740,41.170204 
	C1164.003540,41.164009 1164.387207,41.209045 1164.809326,41.706005 
	C1164.827271,50.349804 1164.806763,58.541676 1164.497314,66.794739 
	C1163.817749,66.822731 1163.427368,66.789536 1162.661255,66.582291 
	C1161.470703,66.276840 1160.655884,66.031342 1159.840820,66.030586 
	C1134.646118,66.007179 1109.451416,65.991081 1084.256836,66.048462 
	C1082.836548,66.051697 1081.417969,66.689507 1079.925293,67.476074 
	C1079.938721,70.906067 1080.025635,73.891953 1080.447021,77.104477 
	C1082.910400,77.551666 1085.038818,77.959579 1087.167969,77.964035 
	C1110.444458,78.012703 1133.720825,77.991478 1156.997314,78.005196 
	C1164.131958,78.009407 1164.859253,78.732803 1164.929810,86.051964 
	C1164.997070,93.034218 1164.980103,100.017288 1165.000000,107.000000 
z"/>
<path fill="#DB323D" opacity="1.000000" stroke="none" 
	d="
M732.000000,107.000000 
	C715.312439,107.000000 698.624878,107.000000 681.402100,106.644485 
	C678.548523,101.132462 676.371155,95.904404 673.814941,90.868675 
	C673.158569,89.575714 671.316589,88.064758 670.003357,88.049751 
	C653.846008,87.865112 637.685425,87.908005 621.526611,88.017960 
	C620.423401,88.025459 618.719666,88.762352 618.325928,89.628571 
	C615.726379,95.347404 613.409180,101.194611 611.000000,107.000000 
	C594.312439,107.000000 577.624878,107.000000 560.170532,106.716812 
	C560.228027,104.625916 561.008240,102.796524 561.883362,101.013725 
	C578.248840,67.672523 594.625549,34.336826 611.000000,0.999994 
	C634.020874,1.000000 657.041809,1.000000 680.534241,1.364132 
	C693.754517,27.676352 706.552673,53.600307 719.224976,79.585663 
	C723.643311,88.645752 727.750671,97.857506 732.000000,107.000000 
M659.012329,57.485043 
	C654.733582,48.057243 650.454773,38.629440 645.753052,28.269777 
	C640.678223,39.631660 636.125305,49.825024 631.256165,60.726494 
	C640.662598,60.726494 648.963745,60.787148 657.260132,60.616871 
	C657.960266,60.602501 658.628601,59.041145 659.012329,57.485043 
z"/>
<path fill="#DB323D" opacity="1.000000" stroke="none" 
	d="
M189.000000,107.000000 
	C172.312439,107.000000 155.624878,107.000000 138.516968,106.641899 
	C155.397736,71.189194 172.698868,36.094597 190.000000,0.999999 
	C213.020889,1.000000 236.041794,1.000000 259.446960,1.369980 
	C271.303345,25.162785 282.808411,48.569530 294.233521,72.015259 
	C299.898193,83.639870 305.415833,95.336143 311.000000,107.000000 
	C294.312439,107.000000 277.624878,107.000000 260.324799,106.677582 
	C257.393494,101.211052 255.281616,95.956306 252.627060,90.991737 
	C251.852448,89.543053 249.542770,88.075737 247.916214,88.052498 
	C232.457520,87.831635 216.993301,88.016914 201.533524,87.838013 
	C198.453751,87.802376 197.110245,89.063782 196.015717,91.615715 
	C193.794647,96.794212 191.351578,101.877480 189.000000,107.000000 
M236.598953,60.737095 
	C237.168274,60.056107 238.372910,59.097157 238.214294,58.734650 
	C233.873367,48.812923 229.393387,38.952030 224.553406,28.232182 
	C219.534882,39.419079 214.964218,49.607624 209.961075,60.760246 
	C219.276443,60.760246 227.518616,60.760246 236.598953,60.737095 
z"/>
<path fill="#DA313D" opacity="1.000000" stroke="none" 
	d="
M898.000000,1.000000 
	C913.354248,1.000000 928.708435,1.000000 944.505127,1.468024 
	C944.947632,25.658964 944.947632,49.381882 944.947632,73.682564 
	C972.674194,73.682564 999.857300,73.682564 1028.000000,73.682564 
	C1028.000000,85.169601 1028.000000,96.084801 1028.000000,107.000000 
	C984.979126,107.000000 941.958191,107.000000 898.470825,106.531349 
	C898.002930,71.041801 898.001465,36.020901 898.000000,1.000000 
z"/>
<path fill="#F7F6F6" opacity="1.000000" stroke="none" 
	d="
M389.468658,107.000000 
	C389.000000,82.909470 389.000000,58.818932 389.000000,34.489594 
	C420.586273,34.489594 451.630463,34.489594 483.220062,34.489594 
	C483.220062,58.553051 483.220062,82.319069 483.110046,106.542542 
	C451.979095,107.000000 420.958221,107.000000 389.468658,107.000000 
z"/>
<path fill="#F7F5F6" opacity="1.000000" stroke="none" 
	d="
M1028.416626,107.000000 
	C1028.000000,96.084801 1028.000000,85.169601 1028.000000,73.682564 
	C999.857300,73.682564 972.674194,73.682564 944.947632,73.682564 
	C944.947632,49.381882 944.947632,25.658964 944.973816,1.468024 
	C974.020935,1.000000 1003.041809,1.000000 1032.531372,1.000000 
	C1032.999390,36.020893 1032.998901,71.041786 1032.999146,106.531342 
	C1031.611084,107.000000 1030.222168,107.000000 1028.416626,107.000000 
z"/>
<path fill="#F8F3F3" opacity="1.000000" stroke="none" 
	d="
M189.531342,0.999999 
	C172.698868,36.094597 155.397736,71.189194 138.048309,106.641899 
	C136.933334,107.000000 135.866653,107.000000 134.399994,107.000000 
	C134.000000,97.202110 134.000000,87.404228 134.000000,77.026108 
	C105.373299,77.026108 77.008423,77.026108 48.221283,77.026108 
	C48.221283,73.560547 48.221283,70.653633 48.221283,67.208710 
	C76.424454,67.208710 104.798241,67.208710 133.624741,67.208710 
	C133.624741,58.345627 133.624741,50.003036 133.624741,41.106522 
	C105.169121,41.106522 76.792374,41.106522 48.116035,41.106522 
	C48.116035,37.656853 48.116035,34.748760 48.116035,31.274277 
	C76.660385,31.274277 105.038399,31.274277 134.065094,31.274277 
	C134.065094,21.127712 134.065094,11.531534 134.032547,1.467679 
	C152.354233,1.000000 170.708450,1.000000 189.531342,0.999999 
z"/>
<path fill="#F8F4F5" opacity="1.000000" stroke="none" 
	d="
M311.468658,107.000000 
	C305.415833,95.336143 299.898193,83.639870 294.233521,72.015259 
	C282.808411,48.569530 271.303345,25.162785 259.915619,1.369980 
	C269.020905,1.000000 278.041779,1.000000 287.531342,1.000000 
	C288.000000,11.794907 288.000000,22.589813 288.000000,34.078331 
	C306.159821,34.078331 323.850494,34.078331 342.065643,34.078331 
	C342.065643,58.536057 342.065643,82.300362 342.032837,106.532333 
	C331.979095,107.000000 321.958221,107.000000 311.468658,107.000000 
z"/>
<path fill="#F8F4F4" opacity="1.000000" stroke="none" 
	d="
M610.531372,0.999994 
	C594.625549,34.336826 578.248840,67.672523 561.883362,101.013725 
	C561.008240,102.796524 560.228027,104.625916 559.701843,106.716812 
	C550.312439,107.000000 540.624878,107.000000 530.468628,107.000000 
	C530.000000,83.036346 530.000000,59.072697 530.000000,34.412300 
	C548.055176,34.412300 565.748352,34.412300 584.062134,34.412300 
	C584.062134,23.129625 584.062134,12.532579 584.031067,1.467766 
	C592.687561,1.000000 601.375183,1.000000 610.531372,0.999994 
z"/>
<path fill="#F8F5F5" opacity="1.000000" stroke="none" 
	d="
M732.399963,107.000000 
	C727.750671,97.857506 723.643311,88.645752 719.224976,79.585663 
	C706.552673,53.600307 693.754517,27.676352 681.002930,1.364132 
	C699.020874,1.000000 717.041809,1.000000 735.531372,1.000000 
	C736.106201,4.476321 736.304199,7.952640 736.304260,11.428962 
	C736.304993,42.982971 736.271118,74.536980 736.123657,106.545494 
	C734.933289,107.000000 733.866638,107.000000 732.399963,107.000000 
z"/>
<path fill="#F9F2F2" opacity="1.000000" stroke="none" 
	d="
M897.531372,1.000000 
	C898.001465,36.020901 898.002930,71.041801 898.002197,106.531349 
	C886.645752,107.000000 875.291565,107.000000 863.468628,107.000000 
	C864.784241,106.335861 866.530212,105.532814 868.358887,105.030136 
	C880.050171,101.816254 888.804810,95.330803 891.768250,83.041512 
	C894.904846,70.034073 889.521606,60.059753 879.666931,51.975445 
	C878.004578,50.611710 876.268860,49.337566 874.576904,48.009510 
	C874.458740,47.916702 874.422546,47.719357 874.297852,47.469872 
	C879.748657,41.078999 884.195923,34.315632 883.492981,25.200281 
	C882.615967,13.826314 876.611328,6.883720 866.002380,3.536136 
	C863.791016,2.838365 861.527161,2.307041 859.143738,1.349509 
	C871.687561,1.000000 884.375122,1.000000 897.531372,1.000000 
z"/>
<path fill="#F8F5F5" opacity="1.000000" stroke="none" 
	d="
M611.468628,107.000000 
	C613.409180,101.194611 615.726379,95.347404 618.325928,89.628571 
	C618.719666,88.762352 620.423401,88.025459 621.526611,88.017960 
	C637.685425,87.908005 653.846008,87.865112 670.003357,88.049751 
	C671.316589,88.064758 673.158569,89.575714 673.814941,90.868675 
	C676.371155,95.904404 678.548523,101.132462 680.933411,106.644485 
	C657.979126,107.000000 634.958191,107.000000 611.468628,107.000000 
z"/>
<path fill="#F8F5F5" opacity="1.000000" stroke="none" 
	d="
M189.468658,107.000000 
	C191.351578,101.877480 193.794647,96.794212 196.015717,91.615715 
	C197.110245,89.063782 198.453751,87.802376 201.533524,87.838013 
	C216.993301,88.016914 232.457520,87.831635 247.916214,88.052498 
	C249.542770,88.075737 251.852448,89.543053 252.627060,90.991737 
	C255.281616,95.956306 257.393494,101.211052 259.856140,106.677582 
	C236.645767,107.000000 213.291550,107.000000 189.468658,107.000000 
z"/>
<path fill="#F9F0F1" opacity="1.000000" stroke="none" 
	d="
M1164.770752,41.254082 
	C1164.387207,41.209045 1164.003540,41.164009 1162.867798,41.079380 
	C1134.751587,41.009289 1107.387451,40.978790 1080.023438,40.948292 
	C1080.023438,40.948292 1079.980347,40.952560 1079.931274,40.520863 
	C1079.882202,37.309265 1079.882202,34.529369 1079.882202,31.161831 
	C1082.509766,31.161831 1084.624268,31.167414 1086.738892,31.160988 
	C1113.151245,31.080732 1139.563477,30.998732 1166.231445,30.942411 
	C1166.658081,30.978426 1166.828979,30.989212 1167.000000,31.000000 
	C1167.000000,34.030594 1167.000000,37.061188 1166.729248,40.585915 
	C1166.277588,41.105534 1166.096924,41.131016 1165.625244,41.126019 
	C1165.146362,41.148384 1164.958618,41.201233 1164.770752,41.254082 
z"/>
<path fill="#F9EFF0" opacity="1.000000" stroke="none" 
	d="
M1080.112549,76.877838 
	C1080.025635,73.891953 1079.938721,70.906067 1080.394531,67.467880 
	C1084.421021,67.009987 1087.904785,67.009537 1091.388672,66.997978 
	C1115.271362,66.918732 1139.154175,66.837158 1163.036865,66.756340 
	C1163.427368,66.789536 1163.817749,66.822731 1164.769897,66.870735 
	C1165.518677,66.874001 1165.705933,66.862450 1166.169434,66.890945 
	C1166.630493,66.953987 1166.815308,66.976997 1167.000000,67.000000 
	C1167.000000,70.030594 1167.000000,73.061188 1166.743896,76.556404 
	C1166.317505,77.038223 1166.147461,77.055412 1165.517212,76.986465 
	C1136.742065,76.892838 1108.427368,76.885338 1080.112549,76.877838 
z"/>
<path fill="#BF3D46" opacity="1.000000" stroke="none" 
	d="
M1165.975830,30.917179 
	C1139.563477,30.998732 1113.151245,31.080732 1086.738892,31.160988 
	C1084.624268,31.167414 1082.509766,31.161831 1079.882202,31.161831 
	C1079.882202,34.529369 1079.882202,37.309265 1079.938477,40.541275 
	C1079.460815,38.102257 1078.242310,35.090015 1078.722046,32.378204 
	C1078.920410,31.257095 1082.755127,30.124773 1084.943115,30.110476 
	C1109.263062,29.951521 1133.584595,29.955547 1157.905029,30.061766 
	C1162.346558,30.081165 1165.045654,29.727282 1164.585327,23.875120 
	C1164.014404,16.617292 1164.779785,9.254324 1164.984009,1.468386 
	C1165.000000,1.000000 1165.500000,1.000000 1165.749512,1.468657 
	C1165.991333,11.597269 1165.983643,21.257223 1165.975830,30.917179 
z"/>
<path fill="#BF3D46" opacity="1.000000" stroke="none" 
	d="
M1080.447021,77.104477 
	C1108.427368,76.885338 1136.742065,76.892838 1165.520020,77.448380 
	C1165.988647,87.664276 1165.994263,97.332138 1166.000000,107.000000 
	C1166.000000,107.000000 1165.500000,107.000000 1165.250000,107.000000 
	C1164.980103,100.017288 1164.997070,93.034218 1164.929810,86.051964 
	C1164.859253,78.732803 1164.131958,78.009407 1156.997314,78.005196 
	C1133.720825,77.991478 1110.444458,78.012703 1087.167969,77.964035 
	C1085.038818,77.959579 1082.910400,77.551666 1080.447021,77.104477 
z"/>
<path fill="#FFCBCD" opacity="1.000000" stroke="none" 
	d="
M1166.231567,30.942410 
	C1165.983643,21.257223 1165.991333,11.597269 1165.999512,1.468681 
	C1166.333252,1.652377 1166.952148,2.302686 1166.956787,2.957338 
	C1167.020752,11.992073 1167.000000,21.027452 1167.000000,30.531342 
	C1166.828979,30.989212 1166.658081,30.978426 1166.231567,30.942410 
z"/>
<path fill="#FFCBCD" opacity="1.000000" stroke="none" 
	d="
M1166.500000,107.000000 
	C1165.994263,97.332138 1165.988647,87.664276 1165.980225,77.534500 
	C1166.147461,77.055412 1166.317505,77.038223 1166.743896,77.010513 
	C1167.000000,87.000000 1167.000000,97.000000 1166.500000,107.000000 
z"/>
<path fill="#FFCBCD" opacity="1.000000" stroke="none" 
	d="
M1167.000000,66.531349 
	C1166.815308,66.976997 1166.630493,66.953987 1166.220215,66.436676 
	C1165.968506,57.680416 1165.942383,49.418457 1165.916260,41.156498 
	C1166.096924,41.131016 1166.277588,41.105534 1166.729248,41.040024 
	C1167.000000,49.354233 1167.000000,57.708466 1167.000000,66.531349 
z"/>
<path fill="#F9F2F3" opacity="1.000000" stroke="none" 
	d="
M818.999878,78.190842 
	C806.908752,78.190842 795.317627,78.190842 783.392273,78.190842 
	C783.392273,74.332642 783.392273,70.954422 783.392273,66.995331 
	C789.842712,66.995331 796.104126,66.995094 802.365479,66.995377 
	C813.327759,66.995872 824.290039,66.984779 835.252319,67.009087 
	C837.075439,67.013130 838.928345,66.994560 840.714417,67.298569 
	C843.842896,67.831100 846.451355,69.745560 845.553772,72.952827 
	C844.999146,74.934845 842.324158,77.524864 840.399658,77.706306 
	C833.479370,78.358810 826.473450,78.103249 818.999878,78.190842 
z"/>
<path fill="#F9F2F3" opacity="1.000000" stroke="none" 
	d="
M790.094727,38.187641 
	C787.645813,38.187550 785.684753,38.187550 783.392578,38.187550 
	C783.392578,34.299908 783.392578,30.905535 783.392578,26.825235 
	C787.107056,26.825235 790.711243,26.824677 794.315491,26.825338 
	C805.138611,26.827326 815.961792,26.823435 826.784912,26.839426 
	C828.281311,26.841639 829.795593,26.816113 831.270386,27.024370 
	C834.628174,27.498556 836.937378,29.215080 836.749084,32.893890 
	C836.572388,36.345570 834.153687,37.910011 831.039124,37.978432 
	C822.218628,38.172207 813.393005,38.143665 804.569336,38.184010 
	C799.907104,38.205326 795.244812,38.187748 790.094727,38.187641 
z"/>
<path fill="#C85059" opacity="1.000000" stroke="none" 
	d="
M1080.366211,41.179695 
	C1107.387451,40.978790 1134.751587,41.009289 1162.581543,41.130615 
	C1161.595459,41.479973 1160.143799,41.961086 1158.691162,41.963902 
	C1133.995605,42.011768 1109.299805,42.009247 1084.604126,41.976753 
	C1083.305420,41.975044 1082.007324,41.608040 1080.366211,41.179695 
z"/>
<path fill="#C85059" opacity="1.000000" stroke="none" 
	d="
M1162.661255,66.582291 
	C1139.154175,66.837158 1115.271362,66.918732 1091.388672,66.997978 
	C1087.904785,67.009537 1084.421021,67.009987 1080.467773,67.023773 
	C1081.417969,66.689507 1082.836548,66.051697 1084.256836,66.048462 
	C1109.451416,65.991081 1134.646118,66.007179 1159.840820,66.030586 
	C1160.655884,66.031342 1161.470703,66.276840 1162.661255,66.582291 
z"/>
<path fill="#C85059" opacity="1.000000" stroke="none" 
	d="
M1165.625244,41.126019 
	C1165.942383,49.418457 1165.968506,57.680416 1165.943848,66.396637 
	C1165.705933,66.862450 1165.518677,66.874001 1165.058960,66.809547 
	C1164.806763,58.541676 1164.827271,50.349804 1164.809326,41.706005 
	C1164.958618,41.201233 1165.146362,41.148384 1165.625244,41.126019 
z"/>
<path fill="#F9EDED" opacity="1.000000" stroke="none" 
	d="
M659.161987,57.841766 
	C658.628601,59.041145 657.960266,60.602501 657.260132,60.616871 
	C648.963745,60.787148 640.662598,60.726494 631.256165,60.726494 
	C636.125305,49.825024 640.678223,39.631660 645.753052,28.269777 
	C650.454773,38.629440 654.733582,48.057243 659.161987,57.841766 
z"/>
<path fill="#F9EDED" opacity="1.000000" stroke="none" 
	d="
M236.179871,60.748672 
	C227.518616,60.760246 219.276443,60.760246 209.961075,60.760246 
	C214.964218,49.607624 219.534882,39.419079 224.553406,28.232182 
	C229.393387,38.952030 233.873367,48.812923 238.214294,58.734650 
	C238.372910,59.097157 237.168274,60.056107 236.179871,60.748672 
z"/>
</svg>