<svg width="1088" height="715" viewBox="0 0 1088 715" fill="none" xmlns="http://www.w3.org/2000/svg">
<path d="M225.75 376.377C225.75 409.087 167.68 495.387 167.68 495.387C167.68 495.387 109.61 409.087 109.61 376.377C109.61 343.667 135.61 317.157 167.68 317.157C199.75 317.157 225.75 343.667 225.75 376.377Z" fill="#FF6464"/>
<path d="M194.98 373.767C194.98 389.137 182.76 401.607 167.68 401.607C152.6 401.607 140.38 389.147 140.38 373.767C140.38 358.397 152.6 345.927 167.68 345.927C182.76 345.927 194.98 358.387 194.98 373.767Z" fill="white"/>
<path d="M1008.55 222.417C1008.55 255.127 950.48 341.427 950.48 341.427C950.48 341.427 892.41 255.127 892.41 222.417C892.41 189.707 918.41 163.197 950.48 163.197C982.55 163.197 1008.55 189.707 1008.55 222.417Z" fill="#FF6464"/>
<path d="M561.01 544.107C561.01 576.817 502.94 663.117 502.94 663.117C502.94 663.117 444.87 576.817 444.87 544.107C444.87 511.397 470.87 484.887 502.94 484.887C535.01 484.887 561.01 511.397 561.01 544.107Z" fill="#FF6464"/>
<path d="M816.93 86.8071C816.93 109.437 776.75 169.137 776.75 169.137C776.75 169.137 736.57 109.437 736.57 86.8071C736.57 64.1771 754.56 45.8372 776.75 45.8372C798.94 45.8372 816.93 64.1771 816.93 86.8071Z" fill="#FF6464"/>
<path d="M795.64 84.9971C795.64 95.6371 787.18 104.257 776.75 104.257C766.32 104.257 757.86 95.6371 757.86 84.9971C757.86 74.3571 766.32 65.7371 776.75 65.7371C787.18 65.7371 795.64 74.3571 795.64 84.9971Z" fill="white"/>
<path d="M413.3 172.337C413.3 196.897 369.7 261.697 369.7 261.697C369.7 261.697 326.1 196.897 326.1 172.337C326.1 147.777 345.62 127.867 369.7 127.867C393.78 127.867 413.3 147.777 413.3 172.337Z" fill="#FF6464"/>
<path d="M390.189 170.377C390.189 181.917 381.009 191.277 369.689 191.277C358.369 191.277 349.189 181.917 349.189 170.377C349.189 158.837 358.369 149.477 369.689 149.477C381.009 149.477 390.189 158.837 390.189 170.377Z" fill="white"/>
<path d="M833.53 426.007C833.53 454.707 782.56 530.457 782.56 530.457C782.56 530.457 731.59 454.717 731.59 426.007C731.59 397.307 754.41 374.037 782.56 374.037C810.71 374.037 833.53 397.307 833.53 426.007Z" fill="#FF6464"/>
<path d="M806.52 423.717C806.52 437.207 795.79 448.147 782.56 448.147C769.33 448.147 758.6 437.207 758.6 423.717C758.6 410.227 769.33 399.287 782.56 399.287C795.79 399.287 806.52 410.227 806.52 423.717Z" fill="white"/>
<path d="M525.259 663.477C525.259 666.467 515.269 668.877 502.939 668.887C490.609 668.887 480.619 666.467 480.619 663.477C480.619 660.487 490.609 658.077 502.939 658.067C515.269 658.067 525.259 660.487 525.259 663.477Z" stroke="#BE252B" stroke-width="0.89" stroke-miterlimit="10"/>
<path opacity="0.91" d="M502.939 673.027C520.375 673.027 534.509 669.222 534.509 664.527C534.509 659.833 520.375 656.027 502.939 656.027C485.504 656.027 471.369 659.833 471.369 664.527C471.369 669.222 485.504 673.027 502.939 673.027Z" stroke="#BE252B" stroke-width="0.81" stroke-miterlimit="10"/>
<path opacity="0.82" d="M502.939 677.157C525.483 677.157 543.759 671.968 543.759 665.567C543.759 659.166 525.483 653.977 502.939 653.977C480.395 653.977 462.119 659.166 462.119 665.567C462.119 671.968 480.395 677.157 502.939 677.157Z" stroke="#BE252B" stroke-width="0.74" stroke-miterlimit="10"/>
<path opacity="0.73" d="M502.939 681.297C530.598 681.297 553.019 674.725 553.019 666.617C553.019 658.51 530.598 651.938 502.939 651.938C475.281 651.938 452.859 658.51 452.859 666.617C452.859 674.725 475.281 681.297 502.939 681.297Z" stroke="#BE252B" stroke-width="0.67" stroke-miterlimit="10"/>
<path opacity="0.64" d="M502.939 685.427C535.706 685.427 562.269 677.472 562.269 667.657C562.269 657.843 535.706 649.887 502.939 649.887C470.172 649.887 443.609 657.843 443.609 667.657C443.609 677.472 470.172 685.427 502.939 685.427Z" stroke="#BE252B" stroke-width="0.6" stroke-miterlimit="10"/>
<path opacity="0.55" d="M502.939 689.567C540.815 689.567 571.519 680.228 571.519 668.707C571.519 657.187 540.815 647.847 502.939 647.847C465.064 647.847 434.359 657.187 434.359 668.707C434.359 680.228 465.064 689.567 502.939 689.567Z" stroke="#BE252B" stroke-width="0.52" stroke-miterlimit="10"/>
<path opacity="0.45" d="M502.939 693.697C545.924 693.697 580.769 682.975 580.769 669.747C580.769 656.52 545.924 645.797 502.939 645.797C459.955 645.797 425.109 656.52 425.109 669.747C425.109 682.975 459.955 693.697 502.939 693.697Z" stroke="#BE252B" stroke-width="0.45" stroke-miterlimit="10"/>
<path opacity="0.36" d="M502.939 697.837C551.032 697.837 590.019 685.731 590.019 670.797C590.019 655.864 551.032 643.757 502.939 643.757C454.846 643.757 415.859 655.864 415.859 670.797C415.859 685.731 454.846 697.837 502.939 697.837Z" stroke="#BE252B" stroke-width="0.38" stroke-miterlimit="10"/>
<path opacity="0.27" d="M502.939 701.968C556.141 701.968 599.269 688.478 599.269 671.838C599.269 655.197 556.141 641.708 502.939 641.708C449.738 641.708 406.609 655.197 406.609 671.838C406.609 688.478 449.738 701.968 502.939 701.968Z" stroke="#BE252B" stroke-width="0.31" stroke-miterlimit="10"/>
<path opacity="0.18" d="M502.939 706.107C561.25 706.107 608.519 691.234 608.519 672.888C608.519 654.541 561.25 639.667 502.939 639.667C444.629 639.667 397.359 654.541 397.359 672.888C397.359 691.234 444.629 706.107 502.939 706.107Z" stroke="#BE252B" stroke-width="0.23" stroke-miterlimit="10"/>
<path opacity="0.09" d="M502.939 710.237C566.358 710.237 617.769 693.981 617.769 673.927C617.769 653.874 566.358 637.617 502.939 637.617C439.521 637.617 388.109 653.874 388.109 673.927C388.109 693.981 439.521 710.237 502.939 710.237Z" stroke="#BE252B" stroke-width="0.16" stroke-miterlimit="10"/>
<path d="M384.429 262.247C384.429 264.217 377.829 265.817 369.689 265.817C361.549 265.817 354.949 264.217 354.949 262.247C354.949 260.277 361.549 258.677 369.689 258.677C377.829 258.677 384.429 260.277 384.429 262.247Z" stroke="#BE252B" stroke-width="0.59" stroke-miterlimit="10"/>
<path opacity="0.91" d="M348.85 262.937C348.85 259.837 358.18 257.327 369.7 257.327C381.21 257.327 390.55 259.837 390.55 262.937C390.55 266.037 381.22 268.547 369.7 268.547C358.19 268.547 348.85 266.037 348.85 262.937Z" stroke="#BE252B" stroke-width="0.54" stroke-miterlimit="10"/>
<path opacity="0.82" d="M369.7 271.277C384.584 271.277 396.65 267.852 396.65 263.627C396.65 259.402 384.584 255.977 369.7 255.977C354.816 255.977 342.75 259.402 342.75 263.627C342.75 267.852 354.816 271.277 369.7 271.277Z" stroke="#BE252B" stroke-width="0.49" stroke-miterlimit="10"/>
<path opacity="0.73" d="M369.7 274.007C387.958 274.007 402.76 269.669 402.76 264.317C402.76 258.966 387.958 254.627 369.7 254.627C351.441 254.627 336.64 258.966 336.64 264.317C336.64 269.669 351.441 274.007 369.7 274.007Z" stroke="#BE252B" stroke-width="0.44" stroke-miterlimit="10"/>
<path opacity="0.64" d="M369.699 276.737C391.332 276.737 408.869 271.486 408.869 265.007C408.869 258.529 391.332 253.277 369.699 253.277C348.066 253.277 330.529 258.529 330.529 265.007C330.529 271.486 348.066 276.737 369.699 276.737Z" stroke="#BE252B" stroke-width="0.39" stroke-miterlimit="10"/>
<path opacity="0.55" d="M369.7 279.467C394.707 279.467 414.98 273.302 414.98 265.697C414.98 258.092 394.707 251.927 369.7 251.927C344.692 251.927 324.42 258.092 324.42 265.697C324.42 273.302 344.692 279.467 369.7 279.467Z" stroke="#BE252B" stroke-width="0.35" stroke-miterlimit="10"/>
<path opacity="0.45" d="M369.7 282.197C398.081 282.197 421.09 275.119 421.09 266.387C421.09 257.656 398.081 250.577 369.7 250.577C341.318 250.577 318.31 257.656 318.31 266.387C318.31 275.119 341.318 282.197 369.7 282.197Z" stroke="#BE252B" stroke-width="0.3" stroke-miterlimit="10"/>
<path opacity="0.36" d="M369.7 284.927C401.451 284.927 427.19 276.936 427.19 267.077C427.19 257.219 401.451 249.227 369.7 249.227C337.949 249.227 312.21 257.219 312.21 267.077C312.21 276.936 337.949 284.927 369.7 284.927Z" stroke="#BE252B" stroke-width="0.25" stroke-miterlimit="10"/>
<path opacity="0.27" d="M369.7 287.667C404.825 287.667 433.3 278.758 433.3 267.767C433.3 256.777 404.825 247.867 369.7 247.867C334.574 247.867 306.1 256.777 306.1 267.767C306.1 278.758 334.574 287.667 369.7 287.667Z" stroke="#BE252B" stroke-width="0.2" stroke-miterlimit="10"/>
<path opacity="0.18" d="M369.699 290.397C408.199 290.397 439.409 280.574 439.409 268.457C439.409 256.34 408.199 246.517 369.699 246.517C331.2 246.517 299.989 256.34 299.989 268.457C299.989 280.574 331.2 290.397 369.699 290.397Z" stroke="#BE252B" stroke-width="0.15" stroke-miterlimit="10"/>
<path opacity="0.09" d="M369.7 293.127C411.574 293.127 445.52 282.391 445.52 269.147C445.52 255.904 411.574 245.167 369.7 245.167C327.826 245.167 293.88 255.904 293.88 269.147C293.88 282.391 327.826 293.127 369.7 293.127Z" stroke="#BE252B" stroke-width="0.11" stroke-miterlimit="10"/>
<path d="M791.491 169.847C791.491 171.817 784.891 173.417 776.751 173.417C768.611 173.417 762.011 171.817 762.011 169.847C762.011 167.877 768.611 166.277 776.751 166.277C784.891 166.277 791.491 167.877 791.491 169.847Z" stroke="#BE252B" stroke-width="0.59" stroke-miterlimit="10"/>
<path opacity="0.91" d="M755.9 170.537C755.9 167.437 765.23 164.927 776.75 164.927C788.26 164.927 797.6 167.437 797.6 170.537C797.6 173.637 788.27 176.147 776.75 176.147C765.24 176.147 755.9 173.637 755.9 170.537Z" stroke="#BE252B" stroke-width="0.54" stroke-miterlimit="10"/>
<path opacity="0.82" d="M776.751 178.877C791.635 178.877 803.701 175.452 803.701 171.227C803.701 167.002 791.635 163.577 776.751 163.577C761.867 163.577 749.801 167.002 749.801 171.227C749.801 175.452 761.867 178.877 776.751 178.877Z" stroke="#BE252B" stroke-width="0.49" stroke-miterlimit="10"/>
<path opacity="0.73" d="M776.75 181.607C795.009 181.607 809.81 177.269 809.81 171.917C809.81 166.566 795.009 162.227 776.75 162.227C758.492 162.227 743.69 166.566 743.69 171.917C743.69 177.269 758.492 181.607 776.75 181.607Z" stroke="#BE252B" stroke-width="0.44" stroke-miterlimit="10"/>
<path opacity="0.64" d="M776.75 184.337C798.383 184.337 815.92 179.086 815.92 172.607C815.92 166.129 798.383 160.877 776.75 160.877C755.117 160.877 737.58 166.129 737.58 172.607C737.58 179.086 755.117 184.337 776.75 184.337Z" stroke="#BE252B" stroke-width="0.39" stroke-miterlimit="10"/>
<path opacity="0.55" d="M776.751 187.067C801.758 187.067 822.031 180.902 822.031 173.297C822.031 165.692 801.758 159.527 776.751 159.527C751.743 159.527 731.471 165.692 731.471 173.297C731.471 180.902 751.743 187.067 776.751 187.067Z" stroke="#BE252B" stroke-width="0.35" stroke-miterlimit="10"/>
<path opacity="0.45" d="M776.75 189.797C805.132 189.797 828.14 182.719 828.14 173.987C828.14 165.256 805.132 158.177 776.75 158.177C748.368 158.177 725.36 165.256 725.36 173.987C725.36 182.719 748.368 189.797 776.75 189.797Z" stroke="#BE252B" stroke-width="0.3" stroke-miterlimit="10"/>
<path opacity="0.36" d="M776.751 192.527C808.502 192.527 834.241 184.535 834.241 174.677C834.241 164.819 808.502 156.827 776.751 156.827C745 156.827 719.261 164.819 719.261 174.677C719.261 184.535 745 192.527 776.751 192.527Z" stroke="#BE252B" stroke-width="0.25" stroke-miterlimit="10"/>
<path opacity="0.27" d="M776.75 195.267C811.876 195.267 840.35 186.358 840.35 175.367C840.35 164.377 811.876 155.467 776.75 155.467C741.625 155.467 713.15 164.377 713.15 175.367C713.15 186.358 741.625 195.267 776.75 195.267Z" stroke="#BE252B" stroke-width="0.2" stroke-miterlimit="10"/>
<path opacity="0.18" d="M776.75 197.997C815.25 197.997 846.46 188.174 846.46 176.057C846.46 163.94 815.25 154.117 776.75 154.117C738.25 154.117 707.04 163.94 707.04 176.057C707.04 188.174 738.25 197.997 776.75 197.997Z" stroke="#BE252B" stroke-width="0.15" stroke-miterlimit="10"/>
<path opacity="0.09" d="M776.751 200.727C818.625 200.727 852.571 189.991 852.571 176.747C852.571 163.504 818.625 152.767 776.751 152.767C734.876 152.767 700.931 163.504 700.931 176.747C700.931 189.991 734.876 200.727 776.751 200.727Z" stroke="#BE252B" stroke-width="0.11" stroke-miterlimit="10"/>
<path d="M801.96 530.437C801.96 533.107 793.01 535.277 781.98 535.277C770.94 535.277 762 533.107 762 530.437C762 527.767 770.95 525.597 781.98 525.597C793.01 525.597 801.96 527.767 801.96 530.437Z" stroke="#BE252B" stroke-width="0.79" stroke-miterlimit="10"/>
<path opacity="0.91" d="M781.97 538.987C797.583 538.987 810.24 535.58 810.24 531.377C810.24 527.174 797.583 523.767 781.97 523.767C766.357 523.767 753.7 527.174 753.7 531.377C753.7 535.58 766.357 538.987 781.97 538.987Z" stroke="#BE252B" stroke-width="0.73" stroke-miterlimit="10"/>
<path opacity="0.82" d="M781.97 542.677C802.156 542.677 818.52 538.034 818.52 532.307C818.52 526.58 802.156 521.937 781.97 521.937C761.784 521.937 745.42 526.58 745.42 532.307C745.42 538.034 761.784 542.677 781.97 542.677Z" stroke="#BE252B" stroke-width="0.66" stroke-miterlimit="10"/>
<path opacity="0.73" d="M781.971 546.387C806.73 546.387 826.801 540.504 826.801 533.247C826.801 525.99 806.73 520.107 781.971 520.107C757.212 520.107 737.141 525.99 737.141 533.247C737.141 540.504 757.212 546.387 781.971 546.387Z" stroke="#BE252B" stroke-width="0.6" stroke-miterlimit="10"/>
<path opacity="0.64" d="M781.97 550.087C811.307 550.087 835.09 542.964 835.09 534.177C835.09 525.39 811.307 518.267 781.97 518.267C752.632 518.267 728.85 525.39 728.85 534.177C728.85 542.964 752.632 550.087 781.97 550.087Z" stroke="#BE252B" stroke-width="0.53" stroke-miterlimit="10"/>
<path opacity="0.55" d="M781.97 553.797C815.881 553.797 843.37 545.434 843.37 535.117C843.37 524.801 815.881 516.437 781.97 516.437C748.06 516.437 720.57 524.801 720.57 535.117C720.57 545.434 748.06 553.797 781.97 553.797Z" stroke="#BE252B" stroke-width="0.47" stroke-miterlimit="10"/>
<path opacity="0.45" d="M781.97 557.497C820.453 557.497 851.65 547.898 851.65 536.057C851.65 524.216 820.453 514.617 781.97 514.617C743.487 514.617 712.29 524.216 712.29 536.057C712.29 547.898 743.487 557.497 781.97 557.497Z" stroke="#BE252B" stroke-width="0.4" stroke-miterlimit="10"/>
<path opacity="0.36" d="M781.97 561.197C825.026 561.197 859.93 550.358 859.93 536.987C859.93 523.616 825.026 512.777 781.97 512.777C738.914 512.777 704.01 523.616 704.01 536.987C704.01 550.358 738.914 561.197 781.97 561.197Z" stroke="#BE252B" stroke-width="0.34" stroke-miterlimit="10"/>
<path opacity="0.27" d="M781.97 564.907C829.604 564.907 868.22 552.828 868.22 537.927C868.22 523.027 829.604 510.947 781.97 510.947C734.335 510.947 695.72 523.027 695.72 537.927C695.72 552.828 734.335 564.907 781.97 564.907Z" stroke="#BE252B" stroke-width="0.27" stroke-miterlimit="10"/>
<path opacity="0.18" d="M781.97 568.607C834.178 568.607 876.5 555.288 876.5 538.857C876.5 522.427 834.178 509.107 781.97 509.107C729.763 509.107 687.44 522.427 687.44 538.857C687.44 555.288 729.763 568.607 781.97 568.607Z" stroke="#BE252B" stroke-width="0.21" stroke-miterlimit="10"/>
<path opacity="0.09" d="M781.97 572.307C838.751 572.307 884.78 557.752 884.78 539.797C884.78 521.842 838.751 507.287 781.97 507.287C725.19 507.287 679.16 521.842 679.16 539.797C679.16 557.752 725.19 572.307 781.97 572.307Z" stroke="#BE252B" stroke-width="0.14" stroke-miterlimit="10"/>
<path d="M167.68 503.317C184.336 503.317 197.84 500.049 197.84 496.017C197.84 491.986 184.336 488.717 167.68 488.717C151.023 488.717 137.52 491.986 137.52 496.017C137.52 500.049 151.023 503.317 167.68 503.317Z" stroke="#BE252B" stroke-width="1.2" stroke-miterlimit="10"/>
<path opacity="0.91" d="M167.68 508.907C191.246 508.907 210.35 503.767 210.35 497.427C210.35 491.087 191.246 485.947 167.68 485.947C144.114 485.947 125.01 491.087 125.01 497.427C125.01 503.767 144.114 508.907 167.68 508.907Z" stroke="#BE252B" stroke-width="1.1" stroke-miterlimit="10"/>
<path opacity="0.82" d="M167.68 514.507C198.149 514.507 222.85 507.496 222.85 498.847C222.85 490.198 198.149 483.187 167.68 483.187C137.21 483.187 112.51 490.198 112.51 498.847C112.51 507.496 137.21 514.507 167.68 514.507Z" stroke="#BE252B" stroke-miterlimit="10"/>
<path opacity="0.73" d="M167.68 520.087C205.053 520.087 235.35 511.209 235.35 500.257C235.35 489.305 205.053 480.427 167.68 480.427C130.307 480.427 100.01 489.305 100.01 500.257C100.01 511.209 130.307 520.087 167.68 520.087Z" stroke="#BE252B" stroke-width="0.9" stroke-miterlimit="10"/>
<path opacity="0.64" d="M167.68 525.677C211.956 525.677 247.85 514.928 247.85 501.667C247.85 488.407 211.956 477.657 167.68 477.657C123.403 477.657 87.5098 488.407 87.5098 501.667C87.5098 514.928 123.403 525.677 167.68 525.677Z" stroke="#BE252B" stroke-width="0.81" stroke-miterlimit="10"/>
<path opacity="0.55" d="M167.68 531.267C218.86 531.267 260.35 518.646 260.35 503.077C260.35 487.508 218.86 474.887 167.68 474.887C116.5 474.887 75.0098 487.508 75.0098 503.077C75.0098 518.646 116.5 531.267 167.68 531.267Z" stroke="#BE252B" stroke-width="0.71" stroke-miterlimit="10"/>
<path opacity="0.45" d="M167.68 536.867C225.764 536.867 272.85 522.375 272.85 504.497C272.85 486.62 225.764 472.127 167.68 472.127C109.596 472.127 62.5098 486.62 62.5098 504.497C62.5098 522.375 109.596 536.867 167.68 536.867Z" stroke="#BE252B" stroke-width="0.61" stroke-miterlimit="10"/>
<path opacity="0.36" d="M167.68 542.447C232.667 542.447 285.35 526.088 285.35 505.907C285.35 485.727 232.667 469.367 167.68 469.367C102.692 469.367 50.0098 485.727 50.0098 505.907C50.0098 526.088 102.692 542.447 167.68 542.447Z" stroke="#BE252B" stroke-width="0.51" stroke-miterlimit="10"/>
<path opacity="0.27" d="M167.68 548.037C239.576 548.037 297.86 529.806 297.86 507.317C297.86 484.828 239.576 466.597 167.68 466.597C95.7836 466.597 37.5 484.828 37.5 507.317C37.5 529.806 95.7836 548.037 167.68 548.037Z" stroke="#BE252B" stroke-width="0.41" stroke-miterlimit="10"/>
<path opacity="0.18" d="M167.68 553.627C246.48 553.627 310.36 533.525 310.36 508.727C310.36 483.93 246.48 463.827 167.68 463.827C88.88 463.827 25 483.93 25 508.727C25 533.525 88.88 553.627 167.68 553.627Z" stroke="#BE252B" stroke-width="0.31" stroke-miterlimit="10"/>
<path opacity="0.09" d="M167.68 559.217C253.384 559.217 322.86 537.248 322.86 510.147C322.86 483.047 253.384 461.077 167.68 461.077C81.9765 461.077 12.5 483.047 12.5 510.147C12.5 537.248 81.9765 559.217 167.68 559.217Z" stroke="#BE252B" stroke-width="0.22" stroke-miterlimit="10"/>
<path d="M950.47 347.917C964.062 347.917 975.08 345.249 975.08 341.957C975.08 338.666 964.062 335.997 950.47 335.997C936.879 335.997 925.86 338.666 925.86 341.957C925.86 345.249 936.879 347.917 950.47 347.917Z" stroke="#BE252B" stroke-width="0.98" stroke-miterlimit="10"/>
<path opacity="0.91" d="M950.47 352.487C969.695 352.487 985.28 348.292 985.28 343.117C985.28 337.942 969.695 333.747 950.47 333.747C931.245 333.747 915.66 337.942 915.66 343.117C915.66 348.292 931.245 352.487 950.47 352.487Z" stroke="#BE252B" stroke-width="0.9" stroke-miterlimit="10"/>
<path opacity="0.82" d="M950.471 357.037C975.329 357.037 995.481 351.32 995.481 344.267C995.481 337.215 975.329 331.497 950.471 331.497C925.613 331.497 905.461 337.215 905.461 344.267C905.461 351.32 925.613 357.037 950.471 357.037Z" stroke="#BE252B" stroke-width="0.82" stroke-miterlimit="10"/>
<path opacity="0.73" d="M950.471 361.597C980.957 361.597 1005.67 354.353 1005.67 345.417C1005.67 336.481 980.957 329.237 950.471 329.237C919.984 329.237 895.271 336.481 895.271 345.417C895.271 354.353 919.984 361.597 950.471 361.597Z" stroke="#BE252B" stroke-width="0.74" stroke-miterlimit="10"/>
<path opacity="0.64" d="M950.47 366.157C986.59 366.157 1015.87 357.387 1015.87 346.567C1015.87 335.748 986.59 326.977 950.47 326.977C914.351 326.977 885.07 335.748 885.07 346.567C885.07 357.387 914.351 366.157 950.47 366.157Z" stroke="#BE252B" stroke-width="0.66" stroke-miterlimit="10"/>
<path opacity="0.55" d="M950.47 370.727C992.223 370.727 1026.07 360.43 1026.07 347.727C1026.07 335.025 992.223 324.727 950.47 324.727C908.717 324.727 874.87 335.025 874.87 347.727C874.87 360.43 908.717 370.727 950.47 370.727Z" stroke="#BE252B" stroke-width="0.58" stroke-miterlimit="10"/>
<path opacity="0.45" d="M950.47 375.277C997.856 375.277 1036.27 363.458 1036.27 348.877C1036.27 334.297 997.856 322.477 950.47 322.477C903.084 322.477 864.67 334.297 864.67 348.877C864.67 363.458 903.084 375.277 950.47 375.277Z" stroke="#BE252B" stroke-width="0.5" stroke-miterlimit="10"/>
<path opacity="0.36" d="M950.471 379.837C1003.49 379.837 1046.47 366.491 1046.47 350.027C1046.47 333.564 1003.49 320.217 950.471 320.217C897.451 320.217 854.471 333.564 854.471 350.027C854.471 366.491 897.451 379.837 950.471 379.837Z" stroke="#BE252B" stroke-width="0.42" stroke-miterlimit="10"/>
<path opacity="0.27" d="M950.471 384.397C1009.12 384.397 1056.67 369.524 1056.67 351.177C1056.67 332.83 1009.12 317.957 950.471 317.957C891.818 317.957 844.271 332.83 844.271 351.177C844.271 369.524 891.818 384.397 950.471 384.397Z" stroke="#BE252B" stroke-width="0.34" stroke-miterlimit="10"/>
<path opacity="0.18" d="M950.47 388.967C1014.76 388.967 1066.87 372.567 1066.87 352.337C1066.87 332.107 1014.76 315.707 950.47 315.707C886.184 315.707 834.07 332.107 834.07 352.337C834.07 372.567 886.184 388.967 950.47 388.967Z" stroke="#BE252B" stroke-width="0.26" stroke-miterlimit="10"/>
<path opacity="0.09" d="M950.47 393.517C1020.39 393.517 1077.07 375.595 1077.07 353.487C1077.07 331.379 1020.39 313.457 950.47 313.457C880.551 313.457 823.87 331.379 823.87 353.487C823.87 375.595 880.551 393.517 950.47 393.517Z" stroke="#BE252B" stroke-width="0.18" stroke-miterlimit="10"/>
<path d="M167.17 306.377C176.29 237.147 199.72 164.727 242.75 115.997C264.07 91.8572 294.1 71.7772 322.93 81.3472C338.41 86.4872 360.24 103.597 367.82 116.267" stroke="#FF8F8F" stroke-width="2.7" stroke-miterlimit="10"/>
<path d="M498.37 433.097C492.86 336.567 482.2 218.907 455.13 151.117C441.72 117.537 419.13 95.3073 397.56 124.537" stroke="#FF8F8F" stroke-width="2.66" stroke-miterlimit="10"/>
<path d="M779.91 362.297C753.64 268.077 706.51 176.427 632.89 110.217C586.84 68.8074 521.99 34.3074 459.81 50.6474C431.52 58.0774 398.32 83.5174 378.85 120.177" stroke="#FF8F8F" stroke-width="2.66" stroke-miterlimit="10"/>
<path d="M182.1 310.117C185.4 305.337 189.79 301.447 194.38 297.957C231.16 270.007 282.2 266.547 325.65 281.507C369.1 296.457 405.61 327.787 435.05 363.687C461.32 395.727 483.11 432.657 491.66 473.527" stroke="#FF8F8F" stroke-width="2.66" stroke-miterlimit="10"/>
<path d="M514.54 471.717C527.14 316.767 567.16 155.507 644.47 53.5973C671.64 17.7873 707.74 -10.6327 737.88 7.76727C747.37 13.5573 758.62 26.1173 767.57 39.7373" stroke="#FF8F8F" stroke-width="2.91" stroke-miterlimit="10"/>
<path d="M538.06 471.717C560.82 418.467 594.38 370.167 640.04 337.857C663.88 320.987 694.5 308.897 717.73 321.507C730.2 328.277 745.7 354.067 749.64 365.907" stroke="#FF8F8F" stroke-width="2.66" stroke-miterlimit="10"/>
<path d="M539.39 428.467C572.36 304.267 645.98 184.327 768.5 126.517C799.28 111.997 835.92 102.137 871.8 107.767C903.45 112.737 930.98 131.227 950.47 155.077" stroke="#FF8F8F" stroke-width="2.66" stroke-miterlimit="10"/>
<path d="M509.26 592.42V605.28H496V592.42H509.26ZM508.95 531L507.42 582.73H497.62L496.09 531H508.95Z" fill="white"/>
</svg>
