<svg width="62" height="61" viewBox="0 0 62 61" fill="none" xmlns="http://www.w3.org/2000/svg">
<g clip-path="url(#clip0_3672_8703)">
<path d="M7.68468 60.9099C3.73986 58.6485 0.800084 55.7841 1.65438 50.4322H15.2226C8.21233 44.7788 4.49365 38.2711 5.1218 29.5774H57.5101C58.0126 38.1957 54.5201 44.7034 47.3591 50.3317H61.1534V54.0504C59.9473 57.4173 57.6106 59.6284 54.319 60.8847H7.68468V60.9099ZM8.73999 33.0197C9.39327 41.035 14.8959 48.2211 22.6851 49.5025C28.3887 50.4573 34.4944 50.4322 40.173 49.4523C47.937 48.0955 53.9422 39.9797 53.5904 33.0197H8.73999ZM57.1583 55.1057C57.0327 54.8293 56.8819 54.5278 56.7563 54.2514H5.74996C5.64945 54.578 5.54895 54.9047 5.44844 55.2313C7.0314 55.9349 8.58923 57.2163 10.1722 57.2163C24.2178 57.3671 38.2885 57.3922 52.3341 57.2163C53.9422 57.2163 55.5502 55.8344 57.1583 55.1057Z" fill="black"/>
<path d="M61.1505 4.95334C59.0902 4.90309 57.0047 4.72721 54.9695 4.82771C48.9894 5.12923 44.3159 9.65196 43.6626 15.632C42.8335 23.3458 40.2455 25.6574 32.4312 25.6574C30.8734 25.6574 29.3155 25.7076 27.7828 25.6323C22.1545 25.3559 18.8881 21.5869 19.2148 15.2049H25.823C28.1095 15.2049 30.396 15.0541 32.6573 15.23C37.0796 15.6069 40.2455 15.3556 42.0294 9.85297C43.9139 4.07392 49.3412 1.43566 55.5725 1.20953C57.4318 1.13415 59.2912 1.20953 61.1505 1.20953V4.95334ZM22.7576 18.7979C26.1496 23.8232 30.7477 21.9638 34.6926 22.1648C36.7278 22.2653 38.6876 21.4111 39.3158 18.7979H22.7576Z" fill="black"/>
<path d="M54.3174 60.9098C57.6089 59.6535 59.9457 57.4172 61.1517 54.0754V60.9098H54.3174Z" fill="white"/>
<path d="M27.6325 12.3658C26.6777 11.8633 25.7983 11.411 24.8184 10.8834C25.9742 8.69738 28.8637 7.24006 26.929 4.25003C26.728 3.92339 27.9591 2.6922 28.537 1.86304C32.1804 5.28021 31.9793 8.01897 27.6325 12.3658Z" fill="black"/>
<path d="M34.5929 12.2908C33.7637 11.8888 32.8592 11.4617 31.7285 10.9089C33.1607 8.77317 35.5728 7.06458 33.9145 4.07456C33.7386 3.74792 35.0201 2.59211 35.6733 1.76294C39.191 5.70776 38.9146 8.27064 34.5929 12.2657V12.2908Z" fill="black"/>
</g>
<defs>
<clipPath id="clip0_3672_8703">
<rect width="60.3031" height="60.3031" fill="white" transform="translate(0.847656 0.606934)"/>
</clipPath>
</defs>
</svg>
