<svg width="954" height="959" viewBox="0 0 954 959" fill="none" xmlns="http://www.w3.org/2000/svg">
<path d="M45.0688 0.00292969H37.4087V492.762H45.0688V0.00292969Z" fill="#D0D0D0"/>
<path d="M889.345 564.34L881.716 563.712L887.995 488.21C888.331 483.958 890.017 479.926 892.807 476.701C895.597 473.476 899.345 471.228 903.504 470.284C907.503 469.266 911.723 469.559 915.543 471.119C919.363 472.678 922.582 475.423 924.726 478.948L924.914 479.294C930.597 488.712 932.543 499.386 934.333 509.777C934.709 511.881 935.086 513.984 935.494 516.056C939.136 534.327 944.912 546.665 953.797 554.859L948.585 560.478C938.476 551.06 931.947 537.498 927.991 517.531C927.583 515.397 927.175 513.262 926.798 511.096C924.946 500.956 923.219 491.38 918.29 483.218L918.102 482.935C916.8 480.784 914.836 479.113 912.504 478.173C910.171 477.233 907.597 477.076 905.168 477.724C902.601 478.326 900.289 479.72 898.56 481.709C896.83 483.698 895.77 486.181 895.53 488.806L889.345 564.34Z" fill="#D0D0D0"/>
<path d="M901.432 0.00292969H893.771V265.627H901.432V0.00292969Z" fill="#D0D0D0"/>
<path d="M834.437 958.711L20.8326 890.963C17.8884 890.721 15.0206 889.902 12.3933 888.551C9.76596 887.201 7.43064 885.345 5.52086 883.092C3.61108 880.838 2.1643 878.23 1.26325 875.416C0.362202 872.603 0.0245526 869.639 0.269617 866.695L37.5028 418.83C37.6572 416.849 38.202 414.918 39.1057 413.148C40.0095 411.378 41.2544 409.804 42.7688 408.517C44.2832 407.231 46.0372 406.256 47.9297 405.65C49.8223 405.044 51.816 404.818 53.7962 404.985L882.219 474.052C884.192 474.214 886.113 474.764 887.874 475.669C889.634 476.574 891.199 477.817 892.479 479.327C893.759 480.838 894.729 482.585 895.333 484.47C895.937 486.355 896.164 488.341 896.001 490.314L858.705 938.148C858.463 941.092 857.644 943.96 856.293 946.587C854.942 949.215 853.087 951.55 850.833 953.46C848.58 955.37 845.971 956.816 843.158 957.717C840.344 958.618 837.381 958.956 834.437 958.711Z" fill="#F7F7F7"/>
<path d="M894.556 506.543L36.2156 435.09L37.5655 418.828C37.7201 416.853 38.2629 414.927 39.1627 413.162C40.0625 411.396 41.3016 409.825 42.8092 408.539C44.3168 407.253 46.0633 406.277 47.9486 405.667C49.8339 405.057 51.821 404.825 53.7962 404.984L882.219 474.05C884.191 474.212 886.113 474.762 887.874 475.667C889.634 476.572 891.199 477.816 892.479 479.326C893.759 480.836 894.728 482.583 895.333 484.469C895.937 486.354 896.164 488.339 896 490.312L894.556 506.543Z" fill="#979797"/>
<path d="M801.756 483.061C801.632 484.603 801.053 486.075 800.093 487.288C799.132 488.502 797.832 489.403 796.359 489.877C794.886 490.351 793.305 490.377 791.816 489.952C790.328 489.527 789 488.669 787.999 487.488C786.999 486.307 786.371 484.856 786.197 483.318C786.022 481.78 786.308 480.225 787.018 478.849C787.728 477.474 788.831 476.34 790.186 475.592C791.541 474.844 793.088 474.515 794.63 474.647C796.685 474.831 798.585 475.817 799.919 477.392C801.253 478.966 801.913 481.003 801.756 483.061Z" fill="#FFF0EB"/>
<path d="M835.128 485.856C834.998 487.397 834.414 488.865 833.45 490.074C832.486 491.283 831.185 492.179 829.712 492.649C828.238 493.118 826.659 493.14 825.173 492.711C823.687 492.283 822.362 491.424 821.364 490.242C820.367 489.06 819.743 487.609 819.57 486.072C819.398 484.535 819.685 482.982 820.396 481.609C821.106 480.235 822.208 479.103 823.562 478.356C824.916 477.609 826.461 477.28 828.002 477.411C829.027 477.49 830.026 477.772 830.942 478.241C831.857 478.71 832.67 479.356 833.333 480.142C833.996 480.928 834.496 481.838 834.805 482.819C835.113 483.8 835.223 484.832 835.128 485.856Z" fill="#FFF0EB"/>
<path d="M868.531 488.619C868.408 490.161 867.83 491.631 866.871 492.845C865.912 494.058 864.614 494.959 863.143 495.435C861.671 495.911 860.091 495.939 858.604 495.517C857.116 495.094 855.787 494.24 854.784 493.062C853.782 491.884 853.152 490.435 852.974 488.899C852.795 487.363 853.076 485.808 853.782 484.432C854.487 483.055 855.585 481.919 856.936 481.167C858.287 480.415 859.831 480.08 861.373 480.205C863.434 480.382 865.342 481.364 866.683 482.94C868.023 484.515 868.687 486.556 868.531 488.619Z" fill="#FFF0EB"/>
<path d="M475.29 625.258L334.739 614.014L323.548 753.905L464.098 765.149L475.29 625.258Z" fill="#B4CBDD"/>
<g style="mix-blend-mode:screen" opacity="0.4">
<path d="M471.305 624.965L459.689 764.385L319.641 752.707L320.331 744.325L394.484 750.604C402.365 751.261 410.299 750.359 417.832 747.949C425.364 745.539 432.348 741.667 438.383 736.556C444.419 731.445 449.387 725.194 453.005 718.162C456.623 711.129 458.82 703.452 459.469 695.57L465.371 624.588L471.305 624.965Z" fill="#B4CBDD"/>
</g>
<path d="M575.586 633.642L471.311 624.959L459.703 764.368L563.978 773.051L575.586 633.642Z" fill="#A1BCD1"/>
<g style="mix-blend-mode:screen" opacity="0.4">
<path d="M564.921 763.158L564.105 773.047L459.814 764.382L471.43 624.962L479.467 625.621L474.726 682.821C473.93 692.316 475.014 701.875 477.914 710.952C480.815 720.028 485.476 728.444 491.63 735.719C497.785 742.993 505.313 748.983 513.784 753.346C522.255 757.71 531.503 760.361 540.999 761.149L564.921 763.158Z" fill="#A1BCD1"/>
</g>
<path d="M502.156 719.572L470.37 716.925L468.054 744.738L499.84 747.385L502.156 719.572Z" fill="#F05956"/>
<path d="M559.883 720.822L531.038 718.42L530.496 724.927L559.342 727.329L559.883 720.822Z" fill="#FCC574"/>
<path d="M558.97 731.756L523.773 728.825L523.231 735.333L558.428 738.263L558.97 731.756Z" fill="#FCC574"/>
<path d="M581.685 694.405L477.425 685.709L471.335 624.962L575.594 633.627L581.685 694.405Z" fill="#B4CBDD"/>
<path d="M453.849 683.762L313.769 672.083L330 613.188L470.079 624.836L453.849 683.762Z" fill="#B4CBDD"/>
<g style="mix-blend-mode:screen" opacity="0.4">
<path d="M455.481 677.703L453.817 683.762L313.769 672.083L330 613.188L335.713 613.659C333.937 620.106 333.603 626.865 334.737 633.455C335.87 640.045 338.442 646.304 342.27 651.787C346.098 657.269 351.088 661.841 356.884 665.175C362.68 668.51 369.14 670.525 375.803 671.079L455.481 677.703Z" fill="#B4CBDD"/>
</g>
<g style="mix-blend-mode:multiply" opacity="0.5">
<path d="M471.336 624.962L466.595 681.91L464.429 689.759L325.856 678.237L326.296 673.12L453.849 683.763L470.048 624.868L471.336 624.962Z" fill="#B4CBDD"/>
</g>
<path d="M581.685 694.405L477.425 685.709L471.335 624.962L575.594 633.627L581.685 694.405Z" fill="#B4CBDD"/>
<g style="mix-blend-mode:multiply" opacity="0.5">
<path d="M570.602 693.495L570.225 698.392L469.294 690.01L467.473 671.425L471.335 624.962L477.425 685.709L570.602 693.495Z" fill="#A1BCD1"/>
</g>
<g style="mix-blend-mode:screen" opacity="0.4">
<path d="M581.685 694.406L477.394 685.71L476.672 678.552L519.148 682.1C525.704 682.644 532.3 681.739 538.467 679.449C544.634 677.158 550.221 673.538 554.832 668.846C559.444 664.154 562.966 658.505 565.149 652.299C567.331 646.093 568.122 639.483 567.464 632.937L575.595 633.628L581.685 694.406Z" fill="#B4CBDD"/>
</g>
<path d="M868 825.378L501.606 836.287L360.495 840.468L6.19068 851L5.85486 839.494L5 808.59L159.789 804H159.85L352.862 798.247L458.405 795.104L493.882 794.066L866.809 783L867.847 819.468L868 825.378Z" fill="#DC303C"/>
<path d="M869 847.943L865.094 879.124L863.72 890L9 776.057L14.2493 734L39.0919 737.3L869 847.943Z" fill="#DC303C"/>
</svg>
