<svg width="51" height="50" viewBox="0 0 51 50" fill="none" xmlns="http://www.w3.org/2000/svg">
<path d="M50.7814 6.55807C49.0147 13.625 43.6918 18.0193 38.3236 22.2549C34.8354 25.0183 32.9101 28.212 33.7256 32.6062C34.9713 39.3787 32.5704 44.0447 26.1376 46.7628C24.8692 47.3064 23.8273 48.3937 22.5815 49.0052C21.5849 49.4809 20.2485 50.0471 19.3424 49.7527C18.7535 49.5488 18.3911 47.8953 18.3685 46.8987C18.2779 41.7797 18.2099 36.638 18.3685 31.519C18.4817 27.9628 17.3265 25.1768 14.4273 23.0477C13.2947 22.2096 12.3434 21.1677 11.2335 20.307C6.22778 16.4111 2.26393 11.8356 0.950195 5.44819V0.963379H50.7814V6.55807ZM22.1738 44.1806C29.3313 41.1002 29.7844 40.4433 29.7844 33.6255C29.7844 32.4024 29.8297 31.2019 29.7844 30.0014C29.6711 26.4 31.0981 23.5007 33.7935 21.145C36.6248 18.6761 39.4788 16.2299 42.2195 13.693C44.7564 11.36 46.3193 8.50602 46.727 4.97253H5.18585C5.63886 8.84577 7.47356 11.7677 10.1916 14.214C12.5699 16.3431 14.9029 18.5176 17.3945 20.4882C20.8374 23.2289 22.287 26.6944 22.1738 30.998C22.0832 35.279 22.1738 39.5599 22.1738 44.158V44.1806Z" fill="white"/>
</svg>
