<svg width="53" height="53" viewBox="0 0 53 53" fill="none" xmlns="http://www.w3.org/2000/svg">
<g clip-path="url(#clip0_3851_7886)">
<path d="M24.2649 13.8837C24.2649 16.4723 24.2203 19.0385 24.2649 21.627C24.2872 23.256 23.6401 23.9924 21.9664 23.9701C16.8117 23.9255 11.6346 24.0147 6.47984 23.9255C3.40037 23.8585 1.14655 21.627 1.01266 18.436C0.856457 14.3747 0.856457 10.3133 1.01266 6.27432C1.19118 3.08328 3.40037 0.851776 6.54678 0.740201C10.5858 0.583996 14.6694 0.583996 18.7085 0.740201C22.145 0.874091 24.1756 3.17254 24.2649 6.69831C24.3095 9.08601 24.2649 11.496 24.2649 13.8837ZM20.8507 20.5559C20.8507 15.7136 20.8953 11.139 20.8507 6.56442C20.8507 4.62301 19.4449 4.1544 17.8159 4.13208C14.424 4.10977 11.0098 4.13208 7.6179 4.13208C5.60955 4.13208 4.47149 5.00237 4.47149 7.07766C4.44917 10.6704 4.42686 14.2408 4.47149 17.8335C4.4938 19.7303 5.54261 20.6006 7.4617 20.5782C11.7685 20.5336 16.0976 20.5782 20.8507 20.5782V20.5559Z" fill="white"/>
<path d="M39.4184 23.9475C37.0307 23.9475 34.643 23.8806 32.2553 23.9475C30.4255 24.0145 29.5106 23.3673 29.5329 21.4259C29.5775 16.472 29.4659 11.4957 29.5998 6.5418C29.6891 2.9714 31.9652 0.762216 35.5803 0.672956C39.3515 0.583696 43.1227 0.561381 46.8716 0.672956C50.5759 0.784531 52.8074 3.08298 52.8744 6.8319C52.9636 10.5139 52.9636 14.1958 52.8744 17.8555C52.7851 21.7606 50.5536 23.8582 46.5815 23.9252C44.1938 23.9698 41.8061 23.9252 39.4184 23.9252V23.9475ZM32.9917 20.5333C37.8787 20.5333 42.431 20.5779 47.0055 20.5333C48.9469 20.5333 49.4156 19.1052 49.4379 17.4985C49.4602 14.1066 49.4379 10.6924 49.4379 7.30051C49.4379 5.11364 48.3444 4.13178 46.2022 4.13178C42.8103 4.13178 39.3961 4.13178 36.0042 4.13178C34.0182 4.13178 32.9471 5.06901 32.9694 7.16662C33.014 11.4734 32.9694 15.8025 32.9694 20.5333H32.9917Z" fill="white"/>
<path d="M24.2645 39.2783C24.2645 41.7552 24.3091 44.2545 24.2645 46.7315C24.1752 50.1457 22.0106 52.4441 18.5741 52.5557C14.7136 52.6896 10.8531 52.6673 6.99264 52.5557C3.42223 52.4664 1.1461 50.1903 1.03453 46.6422C0.922954 42.871 0.945269 39.0998 1.03453 35.3285C1.12379 31.5573 3.31066 29.3258 7.0819 29.2365C11.9466 29.1473 16.8112 29.2365 21.6982 29.1919C23.5504 29.1919 24.3983 29.906 24.3314 31.8027C24.2421 34.2797 24.3314 36.7567 24.3091 39.256L24.2645 39.2783ZM20.8503 32.673C16.0972 32.673 11.7904 32.6953 7.46125 32.673C5.34132 32.673 4.44872 33.7665 4.44872 35.7302C4.44872 39.2336 4.44872 42.7148 4.44872 46.2182C4.44872 48.1373 5.4529 49.1192 7.34968 49.1415C10.9424 49.1638 14.5351 49.32 18.0832 49.0299C19.0651 48.963 20.6717 47.5571 20.7164 46.6869C20.9841 42.1346 20.8503 37.56 20.8503 32.6953V32.673Z" fill="white"/>
<path d="M29.5547 39.0997C29.5547 36.712 29.5993 34.3243 29.5547 31.9366C29.5101 30.1068 30.2241 29.2142 32.1432 29.2365C37.0972 29.2811 42.0734 29.1696 47.0273 29.3034C50.5754 29.3927 52.8069 31.6911 52.8962 35.2839C52.9854 39.0551 53.0078 42.8263 52.8962 46.5976C52.7846 50.3019 50.4862 52.511 46.7372 52.6003C43.0553 52.6896 39.3733 52.6896 35.7136 52.6003C31.9424 52.511 29.7332 50.3242 29.6216 46.5753C29.5324 44.0983 29.6216 41.6213 29.6216 39.122L29.5547 39.0997ZM32.9912 32.6953C32.9912 37.5154 32.9912 42.0007 32.9912 46.486C32.9912 48.3605 34.1739 49.0969 35.8475 49.1192C39.4402 49.1638 43.0106 49.1415 46.6034 49.1192C48.3662 49.1192 49.3927 48.1596 49.415 46.3967C49.482 42.7148 49.4597 39.0328 49.415 35.3508C49.3927 33.6102 48.4109 32.6507 46.6257 32.6507C42.2296 32.6507 37.8112 32.6507 33.0135 32.6507L32.9912 32.6953Z" fill="white"/>
</g>
<defs>
<clipPath id="clip0_3851_7886">
<rect width="51.994" height="52.0386" fill="white" transform="translate(0.946289 0.606201)"/>
</clipPath>
</defs>
</svg>
