<svg width="54" height="56" viewBox="0 0 54 56" fill="none" xmlns="http://www.w3.org/2000/svg">
<path d="M45.8982 21.1257V9.87029C45.8982 7.88021 45.3069 5.97164 44.2545 4.56445C43.2021 3.15725 41.7748 2.3667 40.2865 2.3667H12.2279C10.7396 2.3667 9.31224 3.15725 8.25984 4.56445C7.20744 5.97164 6.61621 7.88021 6.61621 9.87029V21.1257" stroke="white" stroke-width="4.35001" stroke-linecap="round" stroke-linejoin="round"/>
<path d="M2.25195 27.406V40.3578C2.25195 41.7318 2.82344 43.0495 3.84069 44.0211C4.85794 44.9926 6.23762 45.5384 7.67623 45.5384H45.6462C47.0848 45.5384 48.4645 44.9926 49.4817 44.0211C50.499 43.0495 51.0704 41.7318 51.0704 40.3578V27.406C51.0704 26.032 50.499 24.7143 49.4817 23.7427C48.4645 22.7712 47.0848 22.2253 45.6462 22.2253C44.2076 22.2253 42.8279 22.7712 41.8106 23.7427C40.7934 24.7143 40.2219 26.032 40.2219 27.406V32.5867H13.1005V27.406C13.1005 26.032 12.529 24.7143 11.5118 23.7427C10.4945 22.7712 9.11484 22.2253 7.67623 22.2253C6.23762 22.2253 4.85794 22.7712 3.84069 23.7427C2.82344 24.7143 2.25195 26.032 2.25195 27.406Z" stroke="white" stroke-width="4.35001" stroke-linecap="round" stroke-linejoin="round"/>
<path d="M8.79883 48.2241V53.4048" stroke="white" stroke-width="4.35001" stroke-linecap="round" stroke-linejoin="round"/>
<path d="M45.8994 48.2241V53.4048" stroke="white" stroke-width="4.35001" stroke-linecap="round" stroke-linejoin="round"/>
</svg>
