<svg width="403" height="449" viewBox="0 0 403 449" fill="none" xmlns="http://www.w3.org/2000/svg">
<path d="M240.468 293.551C242.827 282.54 197.863 308.467 195.531 319.504L210.013 358.475C210.526 359.601 211.367 360.546 212.426 361.187C215.626 363.14 227.315 369.757 228.345 370.381C229.156 370.878 230.069 371.184 231.016 371.276C231.962 371.368 232.917 371.244 233.809 370.912C234.7 370.58 235.504 370.05 236.159 369.361C236.815 368.672 237.305 367.843 237.593 366.936L256.36 302.582C257.526 297.293 240.468 293.551 240.468 293.551Z" fill="#2C2C2E"/>
<path opacity="0.25" d="M240.468 293.551C242.827 282.54 197.863 308.467 195.531 319.504L210.013 358.475C210.526 359.601 211.367 360.546 212.426 361.187C215.626 363.14 227.315 369.757 228.345 370.381C229.156 370.878 230.069 371.184 231.016 371.276C231.962 371.368 232.917 371.244 233.809 370.912C234.7 370.58 235.504 370.05 236.159 369.361C236.815 368.672 237.305 367.843 237.593 366.936L256.36 302.582C257.526 297.293 240.468 293.551 240.468 293.551Z" fill="black"/>
<path d="M381.03 1.44734L6.02054 217.807C4.26517 218.95 2.80478 220.491 1.75849 222.306C0.712205 224.12 0.109655 226.156 0 228.248V434.357C0.112544 436.447 0.719427 438.481 1.77074 440.291C2.82205 442.102 4.28783 443.637 6.04769 444.77L9.8173 446.94C11.6923 447.872 13.7576 448.357 15.8514 448.357C17.9451 448.357 20.0105 447.872 21.8855 446.94L396.895 230.526C398.648 229.382 400.108 227.84 401.154 226.026C402.2 224.212 402.803 222.176 402.915 220.085V14.0037C402.796 11.9148 402.186 9.88332 401.136 8.074C400.085 6.26468 398.623 4.72842 396.867 3.58979L393.098 1.44734C391.223 0.515621 389.157 0.0307617 387.064 0.0307617C384.97 0.0307617 382.905 0.515621 381.03 1.44734V1.44734Z" fill="#2C2C2E"/>
<path opacity="0.25" d="M381.03 1.44734L6.02054 217.807C4.26517 218.95 2.80478 220.491 1.75849 222.306C0.712205 224.12 0.109655 226.156 0 228.248V434.357C0.112544 436.447 0.719427 438.481 1.77074 440.291C2.82205 442.102 4.28783 443.637 6.04769 444.77L9.8173 446.94C11.6923 447.872 13.7576 448.357 15.8514 448.357C17.9451 448.357 20.0105 447.872 21.8855 446.94L396.895 230.526C398.648 229.382 400.108 227.84 401.154 226.026C402.2 224.212 402.803 222.176 402.915 220.085V14.0037C402.796 11.9148 402.186 9.88332 401.136 8.074C400.085 6.26468 398.623 4.72842 396.867 3.58979L393.098 1.44734C391.223 0.515621 389.157 0.0307617 387.064 0.0307617C384.97 0.0307617 382.905 0.515621 381.03 1.44734V1.44734Z" fill="black"/>
<path d="M402.915 14.0291V16.2801C402.959 15.2866 402.728 14.3003 402.249 13.4288C401.77 12.5574 401.061 11.8344 400.199 11.339C399.336 10.8435 398.355 10.5946 397.361 10.6194C396.366 10.6443 395.398 10.942 394.562 11.4799L24.1363 225.562C21.6071 227.001 19.5167 229.101 18.0886 231.636C18.0746 231.699 18.0746 231.764 18.0886 231.826L1.81689 222.416C2.83564 220.526 4.33167 218.937 6.156 217.805L381.029 1.44567C382.899 0.495338 384.966 0 387.063 0C389.161 0 391.228 0.495338 393.098 1.44567L396.867 3.58812C398.631 4.72455 400.099 6.26394 401.15 8.07931C402.202 9.89468 402.807 11.934 402.915 14.0291Z" fill="#2C2C2E"/>
<path opacity="0.45" d="M402.915 14.0291V16.2801C402.959 15.2866 402.728 14.3003 402.249 13.4288C401.77 12.5574 401.061 11.8344 400.199 11.339C399.336 10.8435 398.355 10.5946 397.361 10.6194C396.366 10.6443 395.398 10.942 394.562 11.4799L24.1363 225.562C21.6071 227.001 19.5167 229.101 18.0886 231.636C18.0746 231.699 18.0746 231.764 18.0886 231.826L1.81689 222.416C2.83564 220.526 4.33167 218.937 6.156 217.805L381.029 1.44567C382.899 0.495338 384.966 0 387.063 0C389.161 0 391.228 0.495338 393.098 1.44567L396.867 3.58812C398.631 4.72455 400.099 6.26394 401.15 8.07931C402.202 9.89468 402.807 11.934 402.915 14.0291Z" fill="white"/>
<path d="M397.355 12.9964C396.756 13.0011 396.167 13.1599 395.647 13.4575L25.248 227.431C23.0591 228.704 21.2416 230.528 19.9761 232.721C18.7105 234.914 18.0411 237.401 18.0342 239.933V440.834C18.0342 441.973 18.2511 444.604 20.4749 444.604C21.4375 444.569 22.3736 444.279 23.1869 443.763L215.383 332.79L227.316 366.12C227.824 367.289 228.676 368.276 229.76 368.948C230.844 369.62 232.107 369.945 233.38 369.88C234.654 369.816 235.877 369.364 236.887 368.585C237.897 367.807 238.645 366.738 239.031 365.523L255.303 309.684L393.613 229.871C398.603 226.97 400.854 224.068 400.854 220.407V16.2779C400.84 15.8326 400.738 15.3945 400.554 14.9886C400.371 14.5826 400.109 14.2168 399.785 13.9121C399.46 13.6073 399.078 13.3696 398.661 13.2125C398.244 13.0554 397.8 12.9819 397.355 12.9964Z" fill="white"/>
<path d="M20.4755 446.775C17.7636 446.775 15.8652 444.443 15.8652 440.836V239.934C15.87 237.025 16.6392 234.169 18.0957 231.651C19.5521 229.133 21.6447 227.042 24.1638 225.588L394.59 11.5876C395.417 11.0701 396.369 10.7856 397.345 10.764C398.321 10.7424 399.285 10.9846 400.134 11.465C400.984 11.9454 401.688 12.6463 402.173 13.4936C402.658 14.3409 402.905 15.3033 402.888 16.2793V220.408C402.888 226.266 398.142 229.683 394.562 231.717L257.148 311.123L241.093 366.121C240.58 367.756 239.58 369.195 238.227 370.246C236.873 371.297 235.231 371.909 233.52 372C231.809 372.092 230.111 371.658 228.653 370.758C227.196 369.857 226.048 368.533 225.364 366.962L214.163 335.937L24.1638 445.636C23.0562 446.334 21.7838 446.727 20.4755 446.775V446.775ZM397.356 15.1403C397.136 15.153 396.922 15.2181 396.732 15.3301L26.3063 229.303C24.448 230.389 22.9051 231.94 21.8302 233.805C20.7552 235.669 20.1855 237.782 20.1772 239.934V440.836C20.1252 441.416 20.238 441.998 20.5027 442.517C21.0356 442.381 21.5468 442.171 22.0214 441.893L216.468 329.646L229.35 365.389C229.709 366.126 230.28 366.74 230.99 367.151C231.7 367.562 232.516 367.752 233.334 367.696C234.152 367.641 234.935 367.343 235.583 366.84C236.231 366.337 236.714 365.653 236.971 364.874L253.46 308.275L254.219 307.841L392.529 228.002C397.952 224.883 398.685 222.415 398.685 220.408V16.2793C398.657 15.9531 398.502 15.6508 398.253 15.4377C398.005 15.2246 397.682 15.1178 397.356 15.1403Z" fill="#2C2C2E"/>
<path d="M59.9614 292.247C60.1993 285.707 61.1081 279.21 62.6733 272.856C64.1989 266.484 66.4462 260.306 69.3718 254.442C72.2226 248.772 75.7564 243.471 79.8942 238.659C83.9603 233.909 88.8019 229.884 94.2133 226.753C98.4916 224.013 103.405 222.425 108.478 222.143C112.341 222.056 116.106 223.365 119.082 225.831C122.248 228.714 124.565 232.41 125.78 236.516C127.465 241.781 128.378 247.261 128.492 252.788C128.628 257.561 128.709 262.578 128.709 267.866C128.709 273.155 128.709 278.172 128.492 282.89C128.252 289.421 127.344 295.909 125.78 302.254C124.251 308.651 122.004 314.856 119.082 320.749C116.248 326.49 112.684 331.841 108.478 336.669C104.405 341.36 99.5855 345.346 94.2133 348.466C89.9184 351.229 84.9905 352.853 79.8942 353.184C76.0373 353.306 72.2742 351.981 69.3447 349.469C66.1641 346.532 63.8477 342.78 62.6462 338.621C60.9622 333.356 60.0487 327.876 59.9342 322.349C59.7715 317.82 59.7173 312.912 59.7173 307.596C59.7173 302.281 59.7986 297.155 59.9614 292.247ZM108.153 293.657C108.153 291.596 108.316 289.291 108.37 286.769C108.424 284.246 108.37 281.697 108.37 279.094C108.37 276.49 108.37 274.022 108.37 271.636C108.37 269.249 108.234 267.134 108.153 265.263C108.058 262.849 107.675 260.454 107.014 258.13C106.522 256.378 105.588 254.781 104.302 253.493C103.174 252.402 101.668 251.79 100.098 251.784C97.9853 251.88 95.9356 252.535 94.1591 253.683C91.9111 254.987 89.9025 256.665 88.2199 258.646C86.5244 260.64 85.1101 262.857 84.0164 265.236C82.8222 267.682 81.9123 270.257 81.3045 272.91C80.675 275.682 80.2938 278.505 80.1654 281.345C80.0027 283.352 79.9213 285.575 79.8942 288.016C79.8671 290.457 79.8942 292.979 79.8942 295.582C79.8942 298.186 79.8942 300.681 79.8942 303.149C79.8942 305.617 79.8942 307.813 80.1654 309.739C80.0375 314.007 81.3776 318.191 83.9622 321.59C86.186 324.031 89.5759 323.922 94.1049 321.319C98.6185 318.71 102.16 314.702 104.193 309.902C106.472 304.766 107.813 299.265 108.153 293.657Z" fill="#455A64"/>
<path d="M197.295 236.787C197.295 238.414 197.43 240.557 197.43 243.214C197.43 245.872 197.43 248.069 197.295 249.777C197.138 255.394 196.328 260.973 194.881 266.402C193.44 271.905 191.422 277.241 188.861 282.321C186.348 287.252 183.233 291.853 179.586 296.016C176.121 300.02 172.016 303.42 167.436 306.077C163.795 308.4 159.624 309.762 155.314 310.037C151.961 310.183 148.667 309.114 146.039 307.027C143.254 304.653 141.164 301.57 139.991 298.104C138.438 293.656 137.623 288.984 137.578 284.273C137.578 282.619 137.578 280.477 137.578 277.819C137.578 275.161 137.578 272.992 137.578 271.256C137.674 265.669 138.448 260.114 139.883 254.713C141.307 249.153 143.344 243.768 145.958 238.658C148.491 233.684 151.624 229.039 155.287 224.827C158.732 220.793 162.83 217.364 167.409 214.685C171.058 212.369 175.243 211.033 179.559 210.806C182.927 210.731 186.22 211.812 188.888 213.871C191.693 216.232 193.779 219.332 194.908 222.82C196.464 227.314 197.27 232.032 197.295 236.787V236.787ZM157.348 272.042C157.244 273.563 157.459 275.089 157.977 276.522C158.495 277.955 159.306 279.265 160.358 280.368C162.148 281.751 164.507 281.588 167.436 279.907C170.496 278.072 172.955 275.386 174.514 272.178C176.387 268.509 177.424 264.471 177.552 260.354C177.687 258.591 177.769 256.611 177.769 254.469C177.769 252.326 177.769 250.455 177.552 248.855C177.335 244.706 176.331 241.94 174.514 240.557C172.697 239.173 170.365 239.309 167.436 240.991C164.383 242.833 161.925 245.516 160.358 248.72C158.517 252.389 157.49 256.413 157.348 260.517C157.185 262.306 157.131 264.259 157.131 266.402C157.131 268.544 157.185 270.415 157.348 272.015V272.042Z" fill="#455A64"/>
<path d="M242.097 263.07C240.383 264.135 238.49 264.879 236.51 265.267C235.135 265.573 233.709 265.573 232.334 265.267C231.239 264.967 230.227 264.42 229.378 263.667C228.632 263.037 227.967 262.317 227.398 261.525V297.512C227.386 298.811 227.08 300.091 226.503 301.255C226.085 302.291 225.367 303.178 224.442 303.804L210.584 311.777C210.293 312.027 209.923 312.165 209.54 312.165C209.156 312.165 208.786 312.027 208.495 311.777C208.178 311.405 207.938 310.974 207.789 310.508C207.64 310.043 207.585 309.552 207.628 309.065V197.984C207.643 196.697 207.939 195.429 208.495 194.268C208.922 193.23 209.649 192.342 210.584 191.719L223.872 184.044C224.165 183.799 224.535 183.665 224.916 183.665C225.298 183.665 225.668 183.799 225.96 184.044C226.283 184.413 226.526 184.844 226.676 185.31C226.825 185.777 226.877 186.269 226.828 186.756V190.661L228.971 185.861C230.678 182.203 233.072 178.908 236.022 176.152C237.856 174.426 239.896 172.932 242.097 171.705C244.915 169.941 248.113 168.872 251.426 168.586C252.826 168.496 254.23 168.69 255.554 169.156C256.877 169.622 258.093 170.35 259.128 171.298C261.691 173.784 263.561 176.897 264.552 180.329C266.078 185.496 266.836 190.86 266.802 196.248C266.802 197.902 266.802 200.18 266.802 203.055C266.802 205.93 266.802 208.235 266.802 209.943C266.723 216.19 265.969 222.409 264.552 228.493C263.308 233.731 261.489 238.815 259.128 243.653C257.102 247.864 254.511 251.778 251.426 255.287C248.742 258.353 245.594 260.979 242.097 263.07V263.07ZM247.032 219.3C247.276 216.149 247.276 212.985 247.032 209.835C247.026 206.711 246.153 203.65 244.51 200.994C243.046 198.906 240.605 198.851 237.161 200.831C235.555 201.75 234.138 202.965 232.984 204.411C231.804 205.863 230.811 207.457 230.028 209.157C229.261 210.907 228.653 212.722 228.211 214.581C227.781 216.363 227.491 218.177 227.344 220.005C227.181 221.767 227.127 223.774 227.127 226.052C227.127 228.33 227.127 230.229 227.344 231.829C227.462 233.322 227.754 234.796 228.211 236.222C228.588 237.428 229.206 238.544 230.028 239.504C230.774 240.339 231.814 240.854 232.93 240.941C234.414 240.967 235.87 240.541 237.107 239.721C240.491 237.783 243.091 234.723 244.456 231.069C245.944 227.283 246.814 223.281 247.032 219.218V219.3Z" fill="#455A64"/>
<path d="M309.516 196C309.516 194.752 309.245 193.939 308.703 193.586C307.829 193.255 306.864 193.255 305.991 193.586C304.222 194.026 302.482 194.579 300.784 195.24C298.614 196.027 295.929 196.895 292.648 197.952C287.097 199.58 282.822 198.893 279.82 195.891C276.819 192.89 275.319 187.557 275.319 179.891C275.346 175.916 275.968 171.967 277.163 168.175C279.81 159.859 284.371 152.28 290.478 146.046C293.586 142.852 297.128 140.113 301.001 137.91C304.171 135.88 307.695 134.464 311.387 133.733C314.179 133.262 317.044 133.466 319.74 134.33C321.987 135.164 323.894 136.718 325.164 138.75C326.538 140.924 327.315 143.422 327.415 145.991C327.464 147.27 327.184 148.54 326.602 149.68C326.158 150.768 325.416 151.709 324.459 152.392L311.387 159.931C311.118 160.14 310.799 160.276 310.461 160.323C310.123 160.371 309.779 160.329 309.462 160.202C308.914 159.865 308.343 159.566 307.753 159.307C306.931 159.002 306.051 158.881 305.177 158.955C303.589 159.198 302.072 159.781 300.73 160.663C299.118 161.585 297.685 162.788 296.499 164.216C295.407 165.503 294.81 167.138 294.817 168.826C294.722 169.712 294.912 170.605 295.36 171.375C295.712 171.836 296.445 171.972 297.557 171.728C299.119 171.346 300.658 170.875 302.167 170.318L309.95 167.606C316.622 165.463 321.476 166.114 324.513 169.613C327.846 174.006 329.466 179.462 329.069 184.962C329.044 188.975 328.413 192.961 327.198 196.786C325.898 200.984 324.076 205.002 321.774 208.746C319.325 212.706 316.432 216.372 313.15 219.675C309.648 223.183 305.689 226.202 301.38 228.652C297.831 230.949 293.856 232.507 289.692 233.235C286.862 233.706 283.957 233.368 281.312 232.259C279.115 231.229 277.302 229.529 276.132 227.404C274.918 225.223 274.222 222.792 274.098 220.299C274.057 219.018 274.346 217.747 274.939 216.611C275.36 215.517 276.096 214.573 277.054 213.899L290.614 206.034C291.4 205.573 291.997 205.546 292.35 206.034C292.782 206.493 293.264 206.903 293.787 207.254C294.558 207.677 295.432 207.874 296.309 207.824C298.079 207.564 299.766 206.905 301.245 205.898C303.386 204.665 305.317 203.1 306.967 201.261C308.427 199.875 309.333 198.005 309.516 196V196Z" fill="#455A64"/>
<path d="M359.035 152.884C359.02 154.174 358.714 155.444 358.14 156.6C357.722 157.636 357.005 158.523 356.079 159.149L342.221 167.122C341.933 167.378 341.562 167.519 341.177 167.519C340.792 167.519 340.421 167.378 340.133 167.122C339.816 166.75 339.576 166.319 339.427 165.853C339.278 165.388 339.223 164.897 339.265 164.41V91.4315C339.278 90.1443 339.574 88.8758 340.133 87.7161C340.547 86.626 341.273 85.6825 342.221 85.0042L356.079 77.031C356.384 76.8065 356.757 76.6969 357.135 76.7217C357.512 76.7465 357.868 76.9042 358.14 77.1666C358.468 77.5331 358.716 77.9629 358.87 78.4295C359.024 78.8961 359.08 79.3893 359.035 79.8786V152.884ZM359.035 189.225C359.02 190.514 358.714 191.784 358.14 192.94C357.733 193.982 357.013 194.872 356.079 195.489L342.221 203.625C341.912 203.853 341.53 203.963 341.147 203.933C340.763 203.903 340.404 203.736 340.133 203.462C339.816 203.09 339.576 202.659 339.427 202.193C339.278 201.728 339.223 201.237 339.265 200.75V183.557C339.281 182.27 339.577 181.002 340.133 179.841C340.561 178.803 341.288 177.916 342.221 177.292L356.079 169.156C356.368 168.913 356.733 168.78 357.11 168.78C357.487 168.78 357.852 168.913 358.14 169.156C358.468 169.523 358.716 169.952 358.87 170.419C359.024 170.886 359.08 171.379 359.035 171.868V189.225Z" fill="#455A64"/>
</svg>
