<svg width="213" height="22" viewBox="0 0 213 22" fill="none" xmlns="http://www.w3.org/2000/svg">
<g clip-path="url(#clip0_3394_6606)">
<path d="M24.341 6.35423V0.181763L0 0.181763L0 21.7841H24.341V15.6116H8.55262V13.6082H24.341V8.36036H8.55262V6.35423H24.341Z" fill="#DC303C"/>
<path d="M38.2072 12.3395L40.8726 5.73442L43.5381 12.3395H38.21H38.2072ZM47.3505 21.7834H56.759L47.2208 0.181091H34.5245L24.9863 21.7834H34.3948L35.9739 17.8955H45.7772L47.3563 21.7834H47.3505Z" fill="#DC303C"/>
<path d="M80.7829 0.182312L52.4941 0.182312V6.97122H62.3608V21.7846H70.9134V6.97122H80.7829V0.182312Z" fill="#DC303C"/>
<path d="M106.6 0.182739L78.3115 0.182739V6.97165H88.181V21.785H96.7308V6.97165H106.6V0.182739Z" fill="#DC303C"/>
<path d="M115.21 12.3418L117.876 5.73674L120.541 12.3418H115.213H115.21ZM124.353 21.7857H133.762L124.221 0.183411L111.524 0.183411L101.986 21.7857H111.395L112.974 17.8978H122.777L124.356 21.7857H124.353Z" fill="#DC303C"/>
<path d="M152.527 15.9229H142.989V13.6383H152.527C153.383 13.6383 154.435 13.6383 154.435 14.7792C154.435 15.9202 153.383 15.9202 152.527 15.9202V15.9229ZM142.989 5.42993H150.885C151.741 5.42993 152.792 5.42993 152.792 6.60332C152.792 7.77671 151.741 7.77671 150.885 7.77671H142.989V5.42993ZM159.535 9.72065C160.653 8.48507 161.345 7.06565 161.345 5.67867C161.345 2.40723 159.734 0.184814 154.504 0.184814L134.439 0.184814V21.7844H155.492C160.723 21.7844 162.993 18.9456 162.993 15.3956C162.993 13.0489 161.547 11.0752 159.538 9.71795L159.535 9.72065Z" fill="#DC303C"/>
<path d="M172.542 14.997V0.183655L163.989 0.183655V21.786H187.673V14.997H172.542Z" fill="#DC303C"/>
<path d="M213 6.35448V0.182007L188.659 0.182007V21.7843H213V15.6118H197.212V13.6084H213V8.3606H197.212V6.35448H213Z" fill="#DC303C"/>
</g>
<defs>
<clipPath id="clip0_3394_6606">
<rect width="213" height="21.6023" fill="white" transform="translate(0 0.182068)"/>
</clipPath>
</defs>
</svg>
