<svg width="591" height="601" viewBox="0 0 591 601" fill="none" xmlns="http://www.w3.org/2000/svg">
<path d="M466.76 180.845L413.503 129.429C409.777 125.832 409.656 119.895 413.253 116.169L448.716 87.0669C450.064 85.9618 452.041 86.0435 453.3 87.2581L465.031 97.1854C476.155 106.6 486.636 116.738 496.408 127.533L505.995 138.132C507.215 139.31 507.402 141.188 506.431 142.581L480.011 180.638C476.423 184.355 470.486 184.461 466.751 180.855L466.76 180.845Z" fill="#AEADAE"/>
<path d="M446.159 87.5359C447.845 86.1453 448.082 83.6477 446.687 81.9575C445.292 80.2672 442.794 80.0243 441.107 81.415L409.569 107.414C407.882 108.805 407.645 111.303 409.04 112.993C410.435 114.683 412.933 114.926 414.62 113.535L446.159 87.5359Z" fill="#AEADAE"/>
<path d="M512.835 148.891C514.083 147.096 513.636 144.625 511.838 143.373C510.039 142.121 507.57 142.561 506.322 144.357L482.994 177.921C481.747 179.716 482.193 182.187 483.992 183.439C485.79 184.691 488.26 184.251 489.508 182.455L512.835 148.891Z" fill="#AEADAE"/>
<path d="M512.691 142.508L504.988 132.591C491.618 115.374 475.862 100.163 458.186 87.4066L449.623 81.228C448.313 80.2803 447.114 79.1977 445.962 78.0479C445.487 77.59 445.089 77.112 444.754 76.4714C442.684 72.5146 443.254 67.5076 446.516 64.1289C448.585 61.9858 449.051 61.5031 451.648 61.6222C455.775 61.8209 461.87 64.0871 465.186 66.5794L467.345 68.1973C489.088 84.4886 508.649 103.504 525.545 124.796L525.555 124.806C527.813 127.657 529.443 130.966 530.194 134.507C531.414 140.254 529.554 140.864 528.652 143.425C525.381 146.814 520.416 147.56 516.379 145.621C514.912 144.913 513.675 143.793 512.672 142.508L512.691 142.508Z" fill="#AEADAE"/>
<path d="M507.588 329.804L505.005 256.017C504.831 250.851 508.88 246.517 514.059 246.329L559.903 250.019C561.652 250.153 563.011 251.589 563.078 253.333L564.611 268.59C566.064 283.041 566.562 297.587 566.091 312.105L565.62 326.342C565.674 328.033 564.504 329.509 562.836 329.844L517.287 338.834C512.108 339.009 507.763 334.97 507.575 329.804H507.588Z" fill="#AEADAE"/>
<path d="M557.762 248.596C559.947 248.767 561.858 247.139 562.029 244.96C562.201 242.78 560.569 240.875 558.384 240.704L517.535 237.504C515.35 237.333 513.439 238.961 513.268 241.14C513.096 243.32 514.728 245.225 516.913 245.397L557.762 248.596Z" fill="#AEADAE"/>
<path d="M563.095 338.812C565.245 338.388 566.644 336.306 566.219 334.162C565.794 332.017 563.707 330.622 561.557 331.045L521.358 338.963C519.208 339.386 517.809 341.468 518.234 343.613C518.658 345.758 520.746 347.153 522.896 346.73L563.095 338.812Z" fill="#AEADAE"/>
<path d="M567.423 334.125L568.782 321.673C571.136 300.056 570.369 278.224 566.509 256.822L564.639 246.45C564.356 244.867 564.249 243.243 564.222 241.633C564.222 240.975 564.249 240.358 564.45 239.674C565.715 235.393 569.602 232.213 574.324 232.039C577.31 231.931 577.983 231.918 579.772 233.797C582.611 236.802 585.422 242.653 586.081 246.732L586.512 249.389C590.843 276.145 591.691 303.343 589.041 330.327C588.691 333.95 587.561 337.453 585.637 340.525C582.516 345.49 580.754 344.645 578.306 345.852C573.598 346.013 569.481 343.102 567.921 338.929C567.356 337.399 567.248 335.748 567.423 334.125V334.125Z" fill="#AEADAE"/>
<path d="M129.221 425.63L182.375 476.968C186.102 480.568 186.201 486.512 182.609 490.237L147.165 519.474C145.815 520.592 143.845 520.505 142.586 519.293L130.869 509.373C119.774 499.976 109.313 489.851 99.5579 479.063L89.9865 468.481C88.7766 467.304 88.5917 465.421 89.5495 464.036L115.957 425.871C119.552 422.133 125.481 422.028 129.195 425.626L129.221 425.63Z" fill="#AEADAE"/>
<path d="M149.725 519.012C148.04 520.408 147.801 522.91 149.193 524.598C150.585 526.287 153.081 526.524 154.766 525.127L186.285 499.015C187.971 497.619 188.209 495.117 186.817 493.428C185.425 491.74 182.93 491.503 181.244 492.9L149.725 519.012Z" fill="#AEADAE"/>
<path d="M83.2054 457.762C81.9578 459.563 82.402 462.035 84.1974 463.284C85.9928 464.533 88.4596 464.086 89.7071 462.285L113.031 428.62C114.279 426.819 113.835 424.347 112.039 423.098C110.244 421.849 107.777 422.296 106.529 424.097L83.2054 457.762Z" fill="#AEADAE"/>
<path d="M83.32 464.146L91.0021 474.055C104.343 491.255 120.072 506.456 137.712 519.173L146.271 525.339C147.586 526.287 148.769 527.378 149.917 528.517C150.387 528.975 150.786 529.448 151.117 530.088C153.182 534.046 152.605 539.049 149.351 542.448C147.276 544.606 146.817 545.09 144.213 544.969C140.085 544.779 134.007 542.516 130.696 540.046L128.538 538.43C106.836 522.167 87.3144 503.178 70.4588 481.908C68.1869 479.061 66.5594 475.759 65.8154 472.205C64.596 466.462 66.464 465.837 67.368 463.271C70.6354 459.875 75.5979 459.11 79.6218 461.041C81.0854 461.741 82.317 462.867 83.32 464.146V464.146Z" fill="#AEADAE"/>
<path d="M302.079 486.519C404.411 486.519 487.368 403.771 487.368 301.696C487.368 199.621 404.411 116.873 302.079 116.873C199.747 116.873 116.791 199.621 116.791 301.696C116.791 403.771 199.747 486.519 302.079 486.519Z" fill="url(#paint0_linear_3780_7035)"/>
<path d="M336.587 95.0796L262.751 94.5853C257.578 94.549 253.413 90.3223 253.453 85.1366L259.074 39.4929C259.282 37.7562 260.772 36.448 262.518 36.4678L277.829 35.5685C292.335 34.7165 306.879 34.8213 321.376 35.9116L335.579 36.9731C337.272 36.9852 338.694 38.2223 338.956 39.8908L346.016 85.7793C345.976 90.9649 341.756 95.1426 336.583 95.1062L336.587 95.0796Z" fill="#AEADAE"/>
<path d="M257.577 41.5823C257.841 39.4065 256.295 37.43 254.124 37.1678C251.954 36.9055 249.981 38.4567 249.718 40.6325L244.797 81.3109C244.534 83.4867 246.08 85.4631 248.251 85.7254C250.421 85.9877 252.394 84.4365 252.657 82.2607L257.577 41.5823Z" fill="#AEADAE"/>
<path d="M347.916 39.9974C347.584 37.8315 345.563 36.3472 343.402 36.6819C341.241 37.0167 339.759 39.0438 340.091 41.2097L346.306 81.7017C346.639 83.8675 348.66 85.3518 350.821 85.0171C352.982 84.6823 354.464 82.6552 354.131 80.4893L347.916 39.9974Z" fill="#AEADAE"/>
<path d="M343.425 35.4902L331.046 33.6171C309.552 30.3668 287.695 30.2171 266.164 33.1721L255.723 34.6079C254.119 34.826 252.513 34.8672 250.893 34.8247C250.244 34.813 249.631 34.7386 248.944 34.5176C244.718 33.0816 241.703 29.0608 241.731 24.3354C241.753 21.3488 241.756 20.6697 243.722 18.9679C246.837 16.2489 252.802 13.6946 256.912 13.2112L259.588 12.8889C286.484 9.67165 313.691 9.95097 340.532 13.7247C344.132 14.2417 347.597 15.5005 350.582 17.56C355.42 20.8777 354.492 22.6199 355.599 25.1028C355.56 29.8129 352.479 33.8008 348.24 35.1897C346.689 35.7008 345.03 35.7343 343.425 35.4902V35.4902Z" fill="#AEADAE"/>
<path d="M279.77 504.514L353.594 505.923C358.766 506.023 362.878 510.301 362.774 515.486L356.588 561.056C356.358 562.79 354.853 564.08 353.107 564.039L337.785 564.748C323.271 565.42 308.729 565.135 294.246 563.866L280.057 562.628C278.365 562.595 276.958 561.341 276.717 559.669L270.226 513.697C270.33 508.512 274.601 504.387 279.774 504.487L279.77 504.514Z" fill="#AEADAE"/>
<path d="M358.111 558.986C357.821 561.159 359.342 563.154 361.509 563.443C363.676 563.732 365.668 562.206 365.958 560.033L371.382 519.419C371.672 517.247 370.151 515.251 367.984 514.962C365.817 514.673 363.825 516.2 363.535 518.372L358.111 558.986Z" fill="#AEADAE"/>
<path d="M267.76 559.452C268.065 561.621 270.068 563.131 272.233 562.823C274.397 562.515 275.905 560.506 275.599 558.336L269.886 517.771C269.581 515.601 267.578 514.091 265.413 514.399C263.248 514.707 261.741 516.716 262.047 518.886L267.76 559.452Z" fill="#AEADAE"/>
<path d="M272.194 564.014L284.549 566.041C306.001 569.557 327.855 569.977 349.421 567.289L359.879 565.983C361.485 565.785 363.091 565.764 364.711 565.826C365.36 565.846 365.972 565.928 366.656 566.157C370.864 567.646 373.829 571.704 373.742 576.428C373.683 579.414 373.672 580.093 371.685 581.771C368.536 584.451 362.54 586.931 358.425 587.363L355.745 587.653C328.811 590.536 301.609 589.92 274.817 585.814C271.224 585.252 267.774 583.951 264.815 581.854C260.02 578.477 260.969 576.747 259.893 574.25C259.99 569.541 263.12 565.591 267.376 564.255C268.933 563.763 270.592 563.75 272.194 564.014V564.014Z" fill="#AEADAE"/>
<path d="M173.969 133.216L124.724 188.334C121.269 192.189 115.337 192.533 111.472 189.087L80.8833 154.827C79.7118 153.516 79.7173 151.556 80.8875 150.249L90.3382 138.158C99.2989 126.697 109.008 115.849 119.41 105.68L129.617 95.7062C130.746 94.4516 132.624 94.1864 134.05 95.0888L173.213 119.983C177.079 123.43 177.424 129.347 173.97 133.202L173.969 133.216Z" fill="#AEADAE"/>
<path d="M81.4636 157.344C80.0026 155.714 77.4939 155.574 75.8603 157.031C74.2267 158.488 74.0868 160.991 75.5478 162.62L102.863 193.09C104.324 194.719 106.833 194.859 108.467 193.402C110.1 191.945 110.24 189.443 108.779 187.813L81.4636 157.344Z" fill="#AEADAE"/>
<path d="M140.083 88.443C138.236 87.2671 135.782 87.8079 134.604 89.6508C133.425 91.4938 133.968 93.9411 135.815 95.117L170.361 117.102C172.209 118.278 174.662 117.737 175.841 115.894C177.019 114.051 176.477 111.604 174.629 110.428L140.083 88.443Z" fill="#AEADAE"/>
<path d="M133.702 88.8496L124.091 96.9217C107.422 110.915 92.8372 127.226 80.8077 145.361L74.9696 154.151C74.081 155.494 73.0339 156.737 71.9347 157.926C71.4894 158.409 71.0327 158.824 70.4028 159.181C66.5269 161.4 61.5051 161.019 57.9796 157.892C55.7519 155.905 55.2405 155.46 55.2656 152.856C55.2833 148.722 57.3136 142.568 59.6643 139.162L61.1982 136.953C76.5982 114.625 94.8285 94.3836 115.43 76.7106C118.181 74.3372 121.423 72.583 124.95 71.683C130.646 70.2447 131.33 72.0778 133.944 72.8819C137.469 76.0093 138.423 80.9515 136.644 85.0457C135.993 86.5429 134.931 87.8129 133.675 88.8622L133.702 88.8496Z" fill="#AEADAE"/>
<path d="M435.839 459.28L482.217 401.729C485.471 397.703 491.378 397.058 495.414 400.303L527.705 432.963C528.942 434.213 529.036 436.17 527.934 437.535L519.11 450.091C510.744 461.993 501.599 473.321 491.728 484.006L482.041 494.486C480.978 495.796 479.115 496.156 477.645 495.328L437.267 472.457C433.231 469.212 432.585 463.32 435.839 459.293L435.839 459.28Z" fill="#AEADAE"/>
<path d="M526.997 430.479C528.539 432.033 531.051 432.045 532.609 430.507C534.166 428.968 534.179 426.462 532.637 424.909L503.807 395.868C502.265 394.314 499.752 394.302 498.195 395.841C496.638 397.379 496.625 399.885 498.167 401.439L526.997 430.479Z" fill="#AEADAE"/>
<path d="M471.956 502.272C473.861 503.352 476.284 502.687 477.368 500.787C478.451 498.886 477.785 496.47 475.879 495.389L440.261 475.19C438.355 474.109 435.933 474.774 434.849 476.675C433.766 478.575 434.432 480.992 436.337 482.072L471.956 502.272Z" fill="#AEADAE"/>
<path d="M478.31 501.541L487.498 492.991C503.433 478.168 517.17 461.136 528.262 442.413L533.645 433.337C534.465 431.951 535.447 430.656 536.484 429.414C536.905 428.908 537.34 428.47 537.95 428.082C541.709 425.669 546.743 425.794 550.423 428.738C552.749 430.609 553.282 431.027 553.39 433.629C553.582 437.759 551.868 444.008 549.693 447.529L548.273 449.813C534.029 472.895 516.851 494.037 497.175 512.735C494.549 515.245 491.4 517.162 487.924 518.24C482.308 519.966 481.531 518.171 478.88 517.5C475.2 514.556 473.996 509.669 475.565 505.49C476.139 503.961 477.135 502.639 478.336 501.527L478.31 501.541Z" fill="#AEADAE"/>
<path d="M94.8046 264.297L96.659 338.288C96.7888 343.469 92.7054 347.78 87.5361 347.913L41.8498 343.801C40.1096 343.648 38.7563 342.205 38.7219 340.448L37.3364 325.141C36.027 310.633 35.6758 296.058 36.285 281.497L36.8808 267.22C36.837 265.529 38.0229 264.053 39.6814 263.732L85.199 255.13C90.3684 254.996 94.6654 259.087 94.7951 264.268L94.8046 264.297Z" fill="#AEADAE"/>
<path d="M43.9741 345.233C41.7963 345.042 39.8751 346.657 39.6829 348.84C39.4907 351.023 41.1004 352.948 43.2782 353.139L83.9941 356.712C86.1719 356.903 88.0931 355.288 88.2853 353.105C88.4774 350.921 86.8677 348.997 84.6899 348.806L43.9741 345.233Z" fill="#AEADAE"/>
<path d="M39.5365 254.758C37.3877 255.163 35.9723 257.238 36.3751 259.391C36.7779 261.545 38.8464 262.962 40.9953 262.557L81.1695 254.98C83.3184 254.574 84.7337 252.5 84.3309 250.346C83.9281 248.192 81.8596 246.775 79.7108 247.18L39.5365 254.758Z" fill="#AEADAE"/>
<path d="M35.1698 259.437L33.6931 271.904C31.1398 293.552 31.6816 315.451 35.3319 336.937L37.102 347.352C37.3755 348.954 37.4573 350.569 37.4708 352.188C37.4728 352.84 37.4254 353.458 37.2186 354.149C35.9192 358.421 31.999 361.586 27.2926 361.704C24.3132 361.782 23.6338 361.794 21.8725 359.886C19.0654 356.85 16.3262 350.957 15.7032 346.86L15.2967 344.194C11.232 317.336 10.6572 290.052 13.5533 263.044L13.5552 263.031C13.9475 259.418 15.0971 255.913 17.0495 252.862C20.2085 247.904 21.9678 248.78 24.4157 247.579C29.1221 247.461 33.1874 250.418 34.7042 254.615C35.2585 256.148 35.346 257.818 35.1565 259.435L35.1698 259.437Z" fill="#AEADAE"/>
<defs>
<linearGradient id="paint0_linear_3780_7035" x1="116.791" y1="301.696" x2="487.368" y2="301.696" gradientUnits="userSpaceOnUse">
<stop offset="1" stop-color="#DDDDDD"/>
</linearGradient>
</defs>
</svg>
